<?xml version="1.0" encoding="UTF-8" standalone="no"?>
<svg xmlns:xlink="http://www.w3.org/1999/xlink" height="137.9px" width="137.7px" xmlns="http://www.w3.org/2000/svg">
  <g transform="matrix(1.0, 0.0, 0.0, 1.0, 112.55, 43.25)">
    <path d="M-50.5 25.7 Q-50.5 28.35 -48.6 30.15 -46.8 32.05 -44.15 32.05 -41.5 32.05 -39.7 30.15 -37.8 28.35 -37.8 25.7 -37.8 23.05 -39.7 21.25 -41.5 19.35 -44.15 19.35 -46.8 19.35 -48.6 21.25 -50.5 23.05 -50.5 25.7 M-53.3 25.7 Q-53.3 29.5 -50.65 32.2 -47.95 34.85 -44.15 34.85 -40.35 34.85 -37.7 32.2 -35.0 29.5 -35.0 25.7 -35.0 21.9 -37.7 19.2 -40.35 16.55 -44.15 16.55 -47.95 16.55 -50.65 19.2 -53.3 21.9 -53.3 25.7" fill="#000000" fill-opacity="0.2" fill-rule="evenodd" stroke="none">
      <animate attributeName="fill" dur="2s" repeatCount="indefinite" values="#000000;#000001"/>
      <animate attributeName="fill-opacity" dur="2s" repeatCount="indefinite" values="0.2;0.2"/>
      <animate attributeName="d" dur="2s" repeatCount="indefinite" values="M-50.5 25.7 Q-50.5 28.35 -48.6 30.15 -46.8 32.05 -44.15 32.05 -41.5 32.05 -39.7 30.15 -37.8 28.35 -37.8 25.7 -37.8 23.05 -39.7 21.25 -41.5 19.35 -44.15 19.35 -46.8 19.35 -48.6 21.25 -50.5 23.05 -50.5 25.7 M-53.3 25.7 Q-53.3 29.5 -50.65 32.2 -47.95 34.85 -44.15 34.85 -40.35 34.85 -37.7 32.2 -35.0 29.5 -35.0 25.7 -35.0 21.9 -37.7 19.2 -40.35 16.55 -44.15 16.55 -47.95 16.55 -50.65 19.2 -53.3 21.9 -53.3 25.7;M-103.45 25.7 Q-103.45 50.55 -85.95 68.0 -68.5 85.55 -43.6 85.55 -18.75 85.55 -1.25 68.0 16.25 50.55 16.25 25.7 16.25 0.85 -1.25 -16.6 -18.75 -34.15 -43.6 -34.15 -68.5 -34.15 -85.95 -16.6 -103.45 0.85 -103.45 25.7 M-112.55 25.7 Q-112.55 54.3 -92.35 74.45 -72.2 94.65 -43.6 94.65 -15.05 94.65 4.95 74.45 25.15 54.3 25.15 25.7 25.15 -2.9 4.95 -23.05 -15.05 -43.25 -43.6 -43.25 -72.2 -43.25 -92.35 -23.05 -112.55 -2.9 -112.55 25.7"/>
    </path>
    <path d="M-53.3 25.7 Q-53.3 21.9 -50.65 19.2 -47.95 16.55 -44.15 16.55 -40.35 16.55 -37.7 19.2 -35.0 21.9 -35.0 25.7 -35.0 29.5 -37.7 32.2 -40.35 34.85 -44.15 34.85 -47.95 34.85 -50.65 32.2 -53.3 29.5 -53.3 25.7 M-50.5 25.7 Q-50.5 23.05 -48.6 21.25 -46.8 19.35 -44.15 19.35 -41.5 19.35 -39.7 21.25 -37.8 23.05 -37.8 25.7 -37.8 28.35 -39.7 30.15 -41.5 32.05 -44.15 32.05 -46.8 32.05 -48.6 30.15 -50.5 28.35 -50.5 25.7" fill="none" stroke="#000000" stroke-linecap="round" stroke-linejoin="round" stroke-opacity="0.0" stroke-width="1.0">
      <animate attributeName="stroke" dur="2s" repeatCount="indefinite" values="#000000;#000001"/>
      <animate attributeName="stroke-width" dur="2s" repeatCount="indefinite" values="0.0;0.0"/>
      <animate attributeName="fill-opacity" dur="2s" repeatCount="indefinite" values="0.0;0.0"/>
      <animate attributeName="d" dur="2s" repeatCount="indefinite" values="M-53.3 25.7 Q-53.3 21.9 -50.65 19.2 -47.95 16.55 -44.15 16.55 -40.35 16.55 -37.7 19.2 -35.0 21.9 -35.0 25.7 -35.0 29.5 -37.7 32.2 -40.35 34.85 -44.15 34.85 -47.95 34.85 -50.65 32.2 -53.3 29.5 -53.3 25.7 M-50.5 25.7 Q-50.5 23.05 -48.6 21.25 -46.8 19.35 -44.15 19.35 -41.5 19.35 -39.7 21.25 -37.8 23.05 -37.8 25.7 -37.8 28.35 -39.7 30.15 -41.5 32.05 -44.15 32.05 -46.8 32.05 -48.6 30.15 -50.5 28.35 -50.5 25.7;M-112.55 25.7 Q-112.55 -2.9 -92.35 -23.05 -72.2 -43.25 -43.6 -43.25 -15.05 -43.25 4.95 -23.05 25.15 -2.9 25.15 25.7 25.15 54.3 4.95 74.45 -15.05 94.65 -43.6 94.65 -72.2 94.65 -92.35 74.45 -112.55 54.3 -112.55 25.7 M-103.45 25.7 Q-103.45 0.85 -85.95 -16.6 -68.5 -34.15 -43.6 -34.15 -18.75 -34.15 -1.25 -16.6 16.25 0.85 16.25 25.7 16.25 50.55 -1.25 68.0 -18.75 85.55 -43.6 85.55 -68.5 85.55 -85.95 68.0 -103.45 50.55 -103.45 25.7"/>
    </path>
  </g>
</svg>
