<?xml version="1.0" encoding="UTF-8" standalone="no"?>
<svg xmlns:xlink="http://www.w3.org/1999/xlink" height="137.85px" width="137.7px" xmlns="http://www.w3.org/2000/svg">
  <g transform="matrix(1.0, 0.0, 0.0, 1.0, 114.15, 48.05)">
    <path d="M-52.1 20.9 Q-52.1 23.55 -50.25 25.35 -48.4 27.2 -45.75 27.2 -43.1 27.2 -41.3 25.35 -39.4 23.55 -39.4 20.9 -39.4 18.25 -41.3 16.4 -43.1 14.55 -45.75 14.55 -48.4 14.55 -50.25 16.4 -52.1 18.25 -52.1 20.9 M-54.9 20.9 Q-54.9 24.65 -52.25 27.35 -49.55 30.0 -45.75 30.0 -41.95 30.0 -39.3 27.35 -36.6 24.65 -36.6 20.9 -36.6 17.1 -39.3 14.4 -41.95 11.75 -45.75 11.75 -49.55 11.75 -52.25 14.4 -54.9 17.1 -54.9 20.9" fill="#ffffff" fill-rule="evenodd" stroke="none">
      <animate attributeName="fill" dur="2s" repeatCount="indefinite" values="#ffffff;#ffffff"/>
      <animate attributeName="fill-opacity" dur="2s" repeatCount="indefinite" values="1.0;1.0"/>
      <animate attributeName="d" dur="2s" repeatCount="indefinite" values="M-52.1 20.9 Q-52.1 23.55 -50.25 25.35 -48.4 27.2 -45.75 27.2 -43.1 27.2 -41.3 25.35 -39.4 23.55 -39.4 20.9 -39.4 18.25 -41.3 16.4 -43.1 14.55 -45.75 14.55 -48.4 14.55 -50.25 16.4 -52.1 18.25 -52.1 20.9 M-54.9 20.9 Q-54.9 24.65 -52.25 27.35 -49.55 30.0 -45.75 30.0 -41.95 30.0 -39.3 27.35 -36.6 24.65 -36.6 20.9 -36.6 17.1 -39.3 14.4 -41.95 11.75 -45.75 11.75 -49.55 11.75 -52.25 14.4 -54.9 17.1 -54.9 20.9;M-105.05 20.9 Q-105.05 45.75 -87.6 63.15 -70.1 80.7 -45.25 80.7 -20.35 80.7 -2.85 63.15 14.65 45.75 14.65 20.9 14.65 -4.0 -2.85 -21.4 -20.35 -38.95 -45.25 -38.95 -70.1 -38.95 -87.6 -21.4 -105.05 -4.0 -105.05 20.9 M-114.15 20.9 Q-114.15 49.45 -94.0 69.65 -73.8 89.8 -45.25 89.8 -16.65 89.8 3.35 69.65 23.55 49.45 23.55 20.9 23.55 -7.7 3.35 -27.85 -16.65 -48.05 -45.25 -48.05 -73.8 -48.05 -94.0 -27.85 -114.15 -7.7 -114.15 20.9"/>
    </path>
    <path d="M-54.9 20.9 Q-54.9 17.1 -52.25 14.4 -49.55 11.75 -45.75 11.75 -41.95 11.75 -39.3 14.4 -36.6 17.1 -36.6 20.9 -36.6 24.65 -39.3 27.35 -41.95 30.0 -45.75 30.0 -49.55 30.0 -52.25 27.35 -54.9 24.65 -54.9 20.9 M-52.1 20.9 Q-52.1 18.25 -50.25 16.4 -48.4 14.55 -45.75 14.55 -43.1 14.55 -41.3 16.4 -39.4 18.25 -39.4 20.9 -39.4 23.55 -41.3 25.35 -43.1 27.2 -45.75 27.2 -48.4 27.2 -50.25 25.35 -52.1 23.55 -52.1 20.9" fill="none" stroke="#000000" stroke-linecap="round" stroke-linejoin="round" stroke-opacity="0.0" stroke-width="1.0">
      <animate attributeName="stroke" dur="2s" repeatCount="indefinite" values="#000000;#000001"/>
      <animate attributeName="stroke-width" dur="2s" repeatCount="indefinite" values="0.0;0.0"/>
      <animate attributeName="fill-opacity" dur="2s" repeatCount="indefinite" values="0.0;0.0"/>
      <animate attributeName="d" dur="2s" repeatCount="indefinite" values="M-54.9 20.9 Q-54.9 17.1 -52.25 14.4 -49.55 11.75 -45.75 11.75 -41.95 11.75 -39.3 14.4 -36.6 17.1 -36.6 20.9 -36.6 24.65 -39.3 27.35 -41.95 30.0 -45.75 30.0 -49.55 30.0 -52.25 27.35 -54.9 24.65 -54.9 20.9 M-52.1 20.9 Q-52.1 18.25 -50.25 16.4 -48.4 14.55 -45.75 14.55 -43.1 14.55 -41.3 16.4 -39.4 18.25 -39.4 20.9 -39.4 23.55 -41.3 25.35 -43.1 27.2 -45.75 27.2 -48.4 27.2 -50.25 25.35 -52.1 23.55 -52.1 20.9;M-114.15 20.9 Q-114.15 -7.7 -94.0 -27.85 -73.8 -48.05 -45.25 -48.05 -16.65 -48.05 3.35 -27.85 23.55 -7.7 23.55 20.9 23.55 49.45 3.35 69.65 -16.65 89.8 -45.25 89.8 -73.8 89.8 -94.0 69.65 -114.15 49.45 -114.15 20.9 M-105.05 20.9 Q-105.05 -4.0 -87.6 -21.4 -70.1 -38.95 -45.25 -38.95 -20.35 -38.95 -2.85 -21.4 14.65 -4.0 14.65 20.9 14.65 45.75 -2.85 63.15 -20.35 80.7 -45.25 80.7 -70.1 80.7 -87.6 63.15 -105.05 45.75 -105.05 20.9"/>
    </path>
  </g>
</svg>
