<?xml version="1.0" encoding="UTF-8" standalone="no"?>
<svg xmlns:xlink="http://www.w3.org/1999/xlink" height="185.75px" width="185.45px" xmlns="http://www.w3.org/2000/svg">
  <g transform="matrix(1.0, 0.0, 0.0, 1.0, 136.25, 67.15)">
    <path d="M-103.45 25.7 Q-103.45 50.55 -85.95 68.0 -68.5 85.55 -43.6 85.55 -18.75 85.55 -1.25 68.0 16.25 50.55 16.25 25.7 16.25 0.85 -1.25 -16.6 -18.75 -34.15 -43.6 -34.15 -68.5 -34.15 -85.95 -16.6 -103.45 0.85 -103.45 25.7 M-112.55 25.7 Q-112.55 54.3 -92.35 74.45 -72.2 94.65 -43.6 94.65 -15.05 94.65 4.95 74.45 25.15 54.3 25.15 25.7 25.15 -2.9 4.95 -23.05 -15.05 -43.25 -43.6 -43.25 -72.2 -43.25 -92.35 -23.05 -112.55 -2.9 -112.55 25.7" fill="#000000" fill-opacity="0.2" fill-rule="evenodd" stroke="none">
      <animate attributeName="fill" dur="2s" repeatCount="indefinite" values="#000000;#000001"/>
      <animate attributeName="fill-opacity" dur="2s" repeatCount="indefinite" values="0.2;0.2"/>
      <animate attributeName="d" dur="2s" repeatCount="indefinite" values="M-103.45 25.7 Q-103.45 50.55 -85.95 68.0 -68.5 85.55 -43.6 85.55 -18.75 85.55 -1.25 68.0 16.25 50.55 16.25 25.7 16.25 0.85 -1.25 -16.6 -18.75 -34.15 -43.6 -34.15 -68.5 -34.15 -85.95 -16.6 -103.45 0.85 -103.45 25.7 M-112.55 25.7 Q-112.55 54.3 -92.35 74.45 -72.2 94.65 -43.6 94.65 -15.05 94.65 4.95 74.45 25.15 54.3 25.15 25.7 25.15 -2.9 4.95 -23.05 -15.05 -43.25 -43.6 -43.25 -72.2 -43.25 -92.35 -23.05 -112.55 -2.9 -112.55 25.7;M-124.65 25.7 Q-124.65 59.45 -100.9 83.15 -77.15 106.95 -43.4 106.95 -9.65 106.95 14.15 83.15 37.9 59.45 37.9 25.7 37.9 -8.05 14.15 -31.75 -9.65 -55.55 -43.4 -55.55 -77.15 -55.55 -100.9 -31.75 -124.65 -8.05 -124.65 25.7 M-136.25 25.7 Q-136.25 64.25 -109.05 91.35 -81.9 118.6 -43.4 118.6 -4.95 118.6 22.0 91.35 49.2 64.25 49.2 25.7 49.2 -12.85 22.0 -39.95 -4.95 -67.15 -43.4 -67.15 -81.9 -67.15 -109.05 -39.95 -136.25 -12.85 -136.25 25.7"/>
    </path>
    <path d="M-112.55 25.7 Q-112.55 -2.9 -92.35 -23.05 -72.2 -43.25 -43.6 -43.25 -15.05 -43.25 4.95 -23.05 25.15 -2.9 25.15 25.7 25.15 54.3 4.95 74.45 -15.05 94.65 -43.6 94.65 -72.2 94.65 -92.35 74.45 -112.55 54.3 -112.55 25.7 M-103.45 25.7 Q-103.45 0.85 -85.95 -16.6 -68.5 -34.15 -43.6 -34.15 -18.75 -34.15 -1.25 -16.6 16.25 0.85 16.25 25.7 16.25 50.55 -1.25 68.0 -18.75 85.55 -43.6 85.55 -68.5 85.55 -85.95 68.0 -103.45 50.55 -103.45 25.7" fill="none" stroke="#000000" stroke-linecap="round" stroke-linejoin="round" stroke-opacity="0.0" stroke-width="1.0">
      <animate attributeName="stroke" dur="2s" repeatCount="indefinite" values="#000000;#000001"/>
      <animate attributeName="stroke-width" dur="2s" repeatCount="indefinite" values="0.0;0.0"/>
      <animate attributeName="fill-opacity" dur="2s" repeatCount="indefinite" values="0.0;0.0"/>
      <animate attributeName="d" dur="2s" repeatCount="indefinite" values="M-112.55 25.7 Q-112.55 -2.9 -92.35 -23.05 -72.2 -43.25 -43.6 -43.25 -15.05 -43.25 4.95 -23.05 25.15 -2.9 25.15 25.7 25.15 54.3 4.95 74.45 -15.05 94.65 -43.6 94.65 -72.2 94.65 -92.35 74.45 -112.55 54.3 -112.55 25.7 M-103.45 25.7 Q-103.45 0.85 -85.95 -16.6 -68.5 -34.15 -43.6 -34.15 -18.75 -34.15 -1.25 -16.6 16.25 0.85 16.25 25.7 16.25 50.55 -1.25 68.0 -18.75 85.55 -43.6 85.55 -68.5 85.55 -85.95 68.0 -103.45 50.55 -103.45 25.7;M-136.25 25.7 Q-136.25 -12.85 -109.05 -39.95 -81.9 -67.15 -43.4 -67.15 -4.95 -67.15 22.0 -39.95 49.2 -12.85 49.2 25.7 49.2 64.25 22.0 91.35 -4.95 118.6 -43.4 118.6 -81.9 118.6 -109.05 91.35 -136.25 64.25 -136.25 25.7 M-124.65 25.7 Q-124.65 -8.05 -100.9 -31.75 -77.15 -55.55 -43.4 -55.55 -9.65 -55.55 14.15 -31.75 37.9 -8.05 37.9 25.7 37.9 59.45 14.15 83.15 -9.65 106.95 -43.4 106.95 -77.15 106.95 -100.9 83.15 -124.65 59.45 -124.65 25.7"/>
    </path>
  </g>
</svg>
