<?xml version="1.0" encoding="UTF-8" standalone="no"?>
<svg xmlns:xlink="http://www.w3.org/1999/xlink" height="185.75px" width="185.45px" xmlns="http://www.w3.org/2000/svg">
  <g transform="matrix(1.0, 0.0, 0.0, 1.0, 137.85, 72.0)">
    <path d="M-105.05 20.9 Q-105.05 45.75 -87.6 63.15 -70.1 80.7 -45.25 80.7 -20.35 80.7 -2.85 63.15 14.65 45.75 14.65 20.9 14.65 -4.0 -2.85 -21.4 -20.35 -38.95 -45.25 -38.95 -70.1 -38.95 -87.6 -21.4 -105.05 -4.0 -105.05 20.9 M-114.15 20.9 Q-114.15 49.45 -94.0 69.65 -73.8 89.8 -45.25 89.8 -16.65 89.8 3.35 69.65 23.55 49.45 23.55 20.9 23.55 -7.7 3.35 -27.85 -16.65 -48.05 -45.25 -48.05 -73.8 -48.05 -94.0 -27.85 -114.15 -7.7 -114.15 20.9" fill="#ffffff" fill-rule="evenodd" stroke="none">
      <animate attributeName="fill" dur="2s" repeatCount="indefinite" values="#ffffff;#ffffff"/>
      <animate attributeName="fill-opacity" dur="2s" repeatCount="indefinite" values="1.0;1.0"/>
      <animate attributeName="d" dur="2s" repeatCount="indefinite" values="M-105.05 20.9 Q-105.05 45.75 -87.6 63.15 -70.1 80.7 -45.25 80.7 -20.35 80.7 -2.85 63.15 14.65 45.75 14.65 20.9 14.65 -4.0 -2.85 -21.4 -20.35 -38.95 -45.25 -38.95 -70.1 -38.95 -87.6 -21.4 -105.05 -4.0 -105.05 20.9 M-114.15 20.9 Q-114.15 49.45 -94.0 69.65 -73.8 89.8 -45.25 89.8 -16.65 89.8 3.35 69.65 23.55 49.45 23.55 20.9 23.55 -7.7 3.35 -27.85 -16.65 -48.05 -45.25 -48.05 -73.8 -48.05 -94.0 -27.85 -114.15 -7.7 -114.15 20.9;M-126.25 20.9 Q-126.25 54.65 -102.55 78.3 -78.75 102.1 -45.05 102.1 -11.25 102.1 12.5 78.3 36.3 54.65 36.3 20.9 36.3 -12.9 12.5 -36.55 -11.25 -60.35 -45.05 -60.35 -78.75 -60.35 -102.55 -36.55 -126.25 -12.9 -126.25 20.9 M-137.85 20.9 Q-137.85 59.4 -110.7 86.55 -83.5 113.75 -45.05 113.75 -6.55 113.75 20.4 86.55 47.6 59.4 47.6 20.9 47.6 -17.65 20.4 -44.75 -6.55 -72.0 -45.05 -72.0 -83.5 -72.0 -110.7 -44.75 -137.85 -17.65 -137.85 20.9"/>
    </path>
    <path d="M-114.15 20.9 Q-114.15 -7.7 -94.0 -27.85 -73.8 -48.05 -45.25 -48.05 -16.65 -48.05 3.35 -27.85 23.55 -7.7 23.55 20.9 23.55 49.45 3.35 69.65 -16.65 89.8 -45.25 89.8 -73.8 89.8 -94.0 69.65 -114.15 49.45 -114.15 20.9 M-105.05 20.9 Q-105.05 -4.0 -87.6 -21.4 -70.1 -38.95 -45.25 -38.95 -20.35 -38.95 -2.85 -21.4 14.65 -4.0 14.65 20.9 14.65 45.75 -2.85 63.15 -20.35 80.7 -45.25 80.7 -70.1 80.7 -87.6 63.15 -105.05 45.75 -105.05 20.9" fill="none" stroke="#000000" stroke-linecap="round" stroke-linejoin="round" stroke-opacity="0.0" stroke-width="1.0">
      <animate attributeName="stroke" dur="2s" repeatCount="indefinite" values="#000000;#000001"/>
      <animate attributeName="stroke-width" dur="2s" repeatCount="indefinite" values="0.0;0.0"/>
      <animate attributeName="fill-opacity" dur="2s" repeatCount="indefinite" values="0.0;0.0"/>
      <animate attributeName="d" dur="2s" repeatCount="indefinite" values="M-114.15 20.9 Q-114.15 -7.7 -94.0 -27.85 -73.8 -48.05 -45.25 -48.05 -16.65 -48.05 3.35 -27.85 23.55 -7.7 23.55 20.9 23.55 49.45 3.35 69.65 -16.65 89.8 -45.25 89.8 -73.8 89.8 -94.0 69.65 -114.15 49.45 -114.15 20.9 M-105.05 20.9 Q-105.05 -4.0 -87.6 -21.4 -70.1 -38.95 -45.25 -38.95 -20.35 -38.95 -2.85 -21.4 14.65 -4.0 14.65 20.9 14.65 45.75 -2.85 63.15 -20.35 80.7 -45.25 80.7 -70.1 80.7 -87.6 63.15 -105.05 45.75 -105.05 20.9;M-137.85 20.9 Q-137.85 -17.65 -110.7 -44.75 -83.5 -72.0 -45.05 -72.0 -6.55 -72.0 20.4 -44.75 47.6 -17.65 47.6 20.9 47.6 59.4 20.4 86.55 -6.55 113.75 -45.05 113.75 -83.5 113.75 -110.7 86.55 -137.85 59.4 -137.85 20.9 M-126.25 20.9 Q-126.25 -12.9 -102.55 -36.55 -78.75 -60.35 -45.05 -60.35 -11.25 -60.35 12.5 -36.55 36.3 -12.9 36.3 20.9 36.3 54.65 12.5 78.3 -11.25 102.1 -45.05 102.1 -78.75 102.1 -102.55 78.3 -126.25 54.65 -126.25 20.9"/>
    </path>
  </g>
</svg>
