<?xml version="1.0" encoding="UTF-8" standalone="no"?>
<svg xmlns:xlink="http://www.w3.org/1999/xlink" height="152.25px" width="151.95px" xmlns="http://www.w3.org/2000/svg">
  <g transform="matrix(1.0, 0.0, 0.0, 1.0, 53.65, 89.7)">
    <path d="M15.5 -13.55 Q15.5 -10.9 17.35 -9.1 19.15 -7.2 21.8 -7.2 24.45 -7.2 26.3 -9.1 28.15 -10.9 28.15 -13.55 28.15 -16.2 26.3 -18.0 24.45 -19.9 21.8 -19.9 19.15 -19.9 17.35 -18.0 15.5 -16.2 15.5 -13.55 M12.65 -13.55 Q12.65 -9.75 15.3 -7.05 18.0 -4.4 21.8 -4.4 25.6 -4.4 28.25 -7.05 30.95 -9.75 30.95 -13.55 30.95 -17.35 28.25 -20.05 25.6 -22.7 21.8 -22.7 18.0 -22.7 15.3 -20.05 12.65 -17.35 12.65 -13.55" fill="#333333" fill-opacity="0.08627451" fill-rule="evenodd" stroke="none">
      <animate attributeName="fill" dur="2s" repeatCount="indefinite" values="#333333;#333334"/>
      <animate attributeName="fill-opacity" dur="2s" repeatCount="indefinite" values="0.08627451;0.08627451"/>
      <animate attributeName="d" dur="2s" repeatCount="indefinite" values="M15.5 -13.55 Q15.5 -10.9 17.35 -9.1 19.15 -7.2 21.8 -7.2 24.45 -7.2 26.3 -9.1 28.15 -10.9 28.15 -13.55 28.15 -16.2 26.3 -18.0 24.45 -19.9 21.8 -19.9 19.15 -19.9 17.35 -18.0 15.5 -16.2 15.5 -13.55 M12.65 -13.55 Q12.65 -9.75 15.3 -7.05 18.0 -4.4 21.8 -4.4 25.6 -4.4 28.25 -7.05 30.95 -9.75 30.95 -13.55 30.95 -17.35 28.25 -20.05 25.6 -22.7 21.8 -22.7 18.0 -22.7 15.3 -20.05 12.65 -17.35 12.65 -13.55;M-43.85 -13.55 Q-43.85 14.0 -24.5 33.3 -5.1 52.7 22.4 52.7 49.95 52.7 69.35 33.3 88.75 14.0 88.75 -13.55 88.75 -41.1 69.35 -60.4 49.95 -79.8 22.4 -79.8 -5.1 -79.8 -24.5 -60.4 -43.85 -41.1 -43.85 -13.55 M-53.65 -13.55 Q-53.65 18.05 -31.4 40.25 -9.15 62.55 22.4 62.55 53.95 62.55 76.05 40.25 98.3 18.05 98.3 -13.55 98.3 -45.15 76.05 -67.35 53.95 -89.7 22.4 -89.7 -9.15 -89.7 -31.4 -67.35 -53.65 -45.15 -53.65 -13.55"/>
    </path>
    <path d="M12.65 -13.55 Q12.65 -17.35 15.3 -20.05 18.0 -22.7 21.8 -22.7 25.6 -22.7 28.25 -20.05 30.95 -17.35 30.95 -13.55 30.95 -9.75 28.25 -7.05 25.6 -4.4 21.8 -4.4 18.0 -4.4 15.3 -7.05 12.65 -9.75 12.65 -13.55 M15.5 -13.55 Q15.5 -16.2 17.35 -18.0 19.15 -19.9 21.8 -19.9 24.45 -19.9 26.3 -18.0 28.15 -16.2 28.15 -13.55 28.15 -10.9 26.3 -9.1 24.45 -7.2 21.8 -7.2 19.15 -7.2 17.35 -9.1 15.5 -10.9 15.5 -13.55" fill="none" stroke="#000000" stroke-linecap="round" stroke-linejoin="round" stroke-opacity="0.0" stroke-width="1.0">
      <animate attributeName="stroke" dur="2s" repeatCount="indefinite" values="#000000;#000001"/>
      <animate attributeName="stroke-width" dur="2s" repeatCount="indefinite" values="0.0;0.0"/>
      <animate attributeName="fill-opacity" dur="2s" repeatCount="indefinite" values="0.0;0.0"/>
      <animate attributeName="d" dur="2s" repeatCount="indefinite" values="M12.65 -13.55 Q12.65 -17.35 15.3 -20.05 18.0 -22.7 21.8 -22.7 25.6 -22.7 28.25 -20.05 30.95 -17.35 30.95 -13.55 30.95 -9.75 28.25 -7.05 25.6 -4.4 21.8 -4.4 18.0 -4.4 15.3 -7.05 12.65 -9.75 12.65 -13.55 M15.5 -13.55 Q15.5 -16.2 17.35 -18.0 19.15 -19.9 21.8 -19.9 24.45 -19.9 26.3 -18.0 28.15 -16.2 28.15 -13.55 28.15 -10.9 26.3 -9.1 24.45 -7.2 21.8 -7.2 19.15 -7.2 17.35 -9.1 15.5 -10.9 15.5 -13.55;M-53.65 -13.55 Q-53.65 -45.15 -31.4 -67.35 -9.15 -89.7 22.4 -89.7 53.95 -89.7 76.05 -67.35 98.3 -45.15 98.3 -13.55 98.3 18.05 76.05 40.25 53.95 62.55 22.4 62.55 -9.15 62.55 -31.4 40.25 -53.65 18.05 -53.65 -13.55 M-43.85 -13.55 Q-43.85 -41.1 -24.5 -60.4 -5.1 -79.8 22.4 -79.8 49.95 -79.8 69.35 -60.4 88.75 -41.1 88.75 -13.55 88.75 14.0 69.35 33.3 49.95 52.7 22.4 52.7 -5.1 52.7 -24.5 33.3 -43.85 14.0 -43.85 -13.55"/>
    </path>
  </g>
</svg>
