<?xml version="1.0" encoding="UTF-8" standalone="no"?>
<svg xmlns:xlink="http://www.w3.org/1999/xlink" height="152.25px" width="152.0px" xmlns="http://www.w3.org/2000/svg">
  <g transform="matrix(1.0, 0.0, 0.0, 1.0, 55.3, 92.9)">
    <path d="M13.85 -16.8 Q13.85 -14.15 15.75 -12.3 17.55 -10.45 20.2 -10.45 22.85 -10.45 24.65 -12.3 26.55 -14.15 26.55 -16.8 26.55 -19.45 24.65 -21.25 22.85 -23.1 20.2 -23.1 17.55 -23.1 15.75 -21.25 13.85 -19.45 13.85 -16.8 M11.05 -16.8 Q11.05 -13.0 13.7 -10.3 16.4 -7.65 20.2 -7.65 24.0 -7.65 26.65 -10.3 29.35 -13.0 29.35 -16.8 29.35 -20.55 26.65 -23.25 24.0 -25.9 20.2 -25.9 16.4 -25.9 13.7 -23.25 11.05 -20.55 11.05 -16.8" fill="#333333" fill-rule="evenodd" stroke="none">
      <animate attributeName="fill" dur="2s" repeatCount="indefinite" values="#333333;#333334"/>
      <animate attributeName="fill-opacity" dur="2s" repeatCount="indefinite" values="1.0;1.0"/>
      <animate attributeName="d" dur="2s" repeatCount="indefinite" values="M13.85 -16.8 Q13.85 -14.15 15.75 -12.3 17.55 -10.45 20.2 -10.45 22.85 -10.45 24.65 -12.3 26.55 -14.15 26.55 -16.8 26.55 -19.45 24.65 -21.25 22.85 -23.1 20.2 -23.1 17.55 -23.1 15.75 -21.25 13.85 -19.45 13.85 -16.8 M11.05 -16.8 Q11.05 -13.0 13.7 -10.3 16.4 -7.65 20.2 -7.65 24.0 -7.65 26.65 -10.3 29.35 -13.0 29.35 -16.8 29.35 -20.55 26.65 -23.25 24.0 -25.9 20.2 -25.9 16.4 -25.9 13.7 -23.25 11.05 -20.55 11.05 -16.8;M-45.45 -16.8 Q-45.45 10.75 -26.1 30.05 -6.75 49.45 20.8 49.45 48.35 49.45 67.75 30.05 87.1 10.75 87.1 -16.8 87.1 -44.35 67.75 -63.6 48.35 -83.0 20.8 -83.0 -6.75 -83.0 -26.1 -63.6 -45.45 -44.35 -45.45 -16.8 M-55.3 -16.8 Q-55.3 14.8 -33.0 37.0 -10.75 59.35 20.8 59.35 52.3 59.35 74.45 37.0 96.7 14.8 96.7 -16.8 96.7 -48.35 74.45 -70.6 52.3 -92.9 20.8 -92.9 -10.75 -92.9 -33.0 -70.6 -55.3 -48.35 -55.3 -16.8"/>
    </path>
    <path d="M11.05 -16.8 Q11.05 -20.55 13.7 -23.25 16.4 -25.9 20.2 -25.9 24.0 -25.9 26.65 -23.25 29.35 -20.55 29.35 -16.8 29.35 -13.0 26.65 -10.3 24.0 -7.65 20.2 -7.65 16.4 -7.65 13.7 -10.3 11.05 -13.0 11.05 -16.8 M13.85 -16.8 Q13.85 -19.45 15.75 -21.25 17.55 -23.1 20.2 -23.1 22.85 -23.1 24.65 -21.25 26.55 -19.45 26.55 -16.8 26.55 -14.15 24.65 -12.3 22.85 -10.45 20.2 -10.45 17.55 -10.45 15.75 -12.3 13.85 -14.15 13.85 -16.8" fill="none" stroke="#000000" stroke-linecap="round" stroke-linejoin="round" stroke-opacity="0.0" stroke-width="1.0">
      <animate attributeName="stroke" dur="2s" repeatCount="indefinite" values="#000000;#000001"/>
      <animate attributeName="stroke-width" dur="2s" repeatCount="indefinite" values="0.0;0.0"/>
      <animate attributeName="fill-opacity" dur="2s" repeatCount="indefinite" values="0.0;0.0"/>
      <animate attributeName="d" dur="2s" repeatCount="indefinite" values="M11.05 -16.8 Q11.05 -20.55 13.7 -23.25 16.4 -25.9 20.2 -25.9 24.0 -25.9 26.65 -23.25 29.35 -20.55 29.35 -16.8 29.35 -13.0 26.65 -10.3 24.0 -7.65 20.2 -7.65 16.4 -7.65 13.7 -10.3 11.05 -13.0 11.05 -16.8 M13.85 -16.8 Q13.85 -19.45 15.75 -21.25 17.55 -23.1 20.2 -23.1 22.85 -23.1 24.65 -21.25 26.55 -19.45 26.55 -16.8 26.55 -14.15 24.65 -12.3 22.85 -10.45 20.2 -10.45 17.55 -10.45 15.75 -12.3 13.85 -14.15 13.85 -16.8;M-55.3 -16.8 Q-55.3 -48.35 -33.0 -70.6 -10.75 -92.9 20.8 -92.9 52.3 -92.9 74.45 -70.6 96.7 -48.35 96.7 -16.8 96.7 14.8 74.45 37.0 52.3 59.35 20.8 59.35 -10.75 59.35 -33.0 37.0 -55.3 14.8 -55.3 -16.8 M-45.45 -16.8 Q-45.45 -44.35 -26.1 -63.6 -6.75 -83.0 20.8 -83.0 48.35 -83.0 67.75 -63.6 87.1 -44.35 87.1 -16.8 87.1 10.75 67.75 30.05 48.35 49.45 20.8 49.45 -6.75 49.45 -26.1 30.05 -45.45 10.75 -45.45 -16.8"/>
    </path>
  </g>
</svg>
