<?xml version="1.0" encoding="UTF-8" standalone="no"?>
<svg xmlns:xlink="http://www.w3.org/1999/xlink" height="198.1px" width="197.85px" xmlns="http://www.w3.org/2000/svg">
  <g transform="matrix(1.0, 0.0, 0.0, 1.0, 142.15, 73.35)">
    <path d="M-124.65 25.7 Q-124.65 59.45 -100.9 83.15 -77.15 106.95 -43.4 106.95 -9.65 106.95 14.15 83.15 37.9 59.45 37.9 25.7 37.9 -8.05 14.15 -31.75 -9.65 -55.55 -43.4 -55.55 -77.15 -55.55 -100.9 -31.75 -124.65 -8.05 -124.65 25.7 M-136.25 25.7 Q-136.25 64.25 -109.05 91.35 -81.9 118.6 -43.4 118.6 -4.95 118.6 22.0 91.35 49.2 64.25 49.2 25.7 49.2 -12.85 22.0 -39.95 -4.95 -67.15 -43.4 -67.15 -81.9 -67.15 -109.05 -39.95 -136.25 -12.85 -136.25 25.7" fill="#000000" fill-opacity="0.2" fill-rule="evenodd" stroke="none">
      <animate attributeName="fill" dur="2s" repeatCount="indefinite" values="#000000;#000001"/>
      <animate attributeName="fill-opacity" dur="2s" repeatCount="indefinite" values="0.2;0.2"/>
      <animate attributeName="d" dur="2s" repeatCount="indefinite" values="M-124.65 25.7 Q-124.65 59.45 -100.9 83.15 -77.15 106.95 -43.4 106.95 -9.65 106.95 14.15 83.15 37.9 59.45 37.9 25.7 37.9 -8.05 14.15 -31.75 -9.65 -55.55 -43.4 -55.55 -77.15 -55.55 -100.9 -31.75 -124.65 -8.05 -124.65 25.7 M-136.25 25.7 Q-136.25 64.25 -109.05 91.35 -81.9 118.6 -43.4 118.6 -4.95 118.6 22.0 91.35 49.2 64.25 49.2 25.7 49.2 -12.85 22.0 -39.95 -4.95 -67.15 -43.4 -67.15 -81.9 -67.15 -109.05 -39.95 -136.25 -12.85 -136.25 25.7;M-139.2 25.7 Q-139.2 65.6 -111.15 93.65 -82.95 121.7 -43.2 121.7 -3.2 121.7 24.9 93.65 53.0 65.6 53.0 25.7 53.0 -14.2 24.9 -42.25 -3.2 -70.3 -43.2 -70.3 -82.95 -70.3 -111.15 -42.25 -139.2 -14.2 -139.2 25.7 M-142.15 25.7 Q-142.15 66.8 -113.2 95.75 -84.25 124.75 -43.15 124.75 -2.1 124.75 26.7 95.75 55.7 66.8 55.7 25.7 55.7 -15.4 26.7 -44.35 -2.1 -73.35 -43.15 -73.35 -84.25 -73.35 -113.2 -44.35 -142.15 -15.4 -142.15 25.7"/>
    </path>
    <path d="M-136.25 25.7 Q-136.25 -12.85 -109.05 -39.95 -81.9 -67.15 -43.4 -67.15 -4.95 -67.15 22.0 -39.95 49.2 -12.85 49.2 25.7 49.2 64.25 22.0 91.35 -4.95 118.6 -43.4 118.6 -81.9 118.6 -109.05 91.35 -136.25 64.25 -136.25 25.7 M-124.65 25.7 Q-124.65 -8.05 -100.9 -31.75 -77.15 -55.55 -43.4 -55.55 -9.65 -55.55 14.15 -31.75 37.9 -8.05 37.9 25.7 37.9 59.45 14.15 83.15 -9.65 106.95 -43.4 106.95 -77.15 106.95 -100.9 83.15 -124.65 59.45 -124.65 25.7" fill="none" stroke="#000000" stroke-linecap="round" stroke-linejoin="round" stroke-opacity="0.0" stroke-width="1.0">
      <animate attributeName="stroke" dur="2s" repeatCount="indefinite" values="#000000;#000001"/>
      <animate attributeName="stroke-width" dur="2s" repeatCount="indefinite" values="0.0;0.0"/>
      <animate attributeName="fill-opacity" dur="2s" repeatCount="indefinite" values="0.0;0.0"/>
      <animate attributeName="d" dur="2s" repeatCount="indefinite" values="M-136.25 25.7 Q-136.25 -12.85 -109.05 -39.95 -81.9 -67.15 -43.4 -67.15 -4.95 -67.15 22.0 -39.95 49.2 -12.85 49.2 25.7 49.2 64.25 22.0 91.35 -4.95 118.6 -43.4 118.6 -81.9 118.6 -109.05 91.35 -136.25 64.25 -136.25 25.7 M-124.65 25.7 Q-124.65 -8.05 -100.9 -31.75 -77.15 -55.55 -43.4 -55.55 -9.65 -55.55 14.15 -31.75 37.9 -8.05 37.9 25.7 37.9 59.45 14.15 83.15 -9.65 106.95 -43.4 106.95 -77.15 106.95 -100.9 83.15 -124.65 59.45 -124.65 25.7;M-142.15 25.7 Q-142.15 -15.4 -113.2 -44.35 -84.25 -73.35 -43.15 -73.35 -2.1 -73.35 26.7 -44.35 55.7 -15.4 55.7 25.7 55.7 66.8 26.7 95.75 -2.1 124.75 -43.15 124.75 -84.25 124.75 -113.2 95.75 -142.15 66.8 -142.15 25.7 M-139.2 25.7 Q-139.2 -14.2 -111.15 -42.25 -82.95 -70.3 -43.2 -70.3 -3.2 -70.3 24.9 -42.25 53.0 -14.2 53.0 25.7 53.0 65.6 24.9 93.65 -3.2 121.7 -43.2 121.7 -82.95 121.7 -111.15 93.65 -139.2 65.6 -139.2 25.7"/>
    </path>
  </g>
</svg>
