<?xml version="1.0" encoding="UTF-8" standalone="no"?>
<svg xmlns:xlink="http://www.w3.org/1999/xlink" height="198.1px" width="197.8px" xmlns="http://www.w3.org/2000/svg">
  <g transform="matrix(1.0, 0.0, 0.0, 1.0, 143.75, 78.15)">
    <path d="M-126.25 20.9 Q-126.25 54.65 -102.55 78.3 -78.75 102.1 -45.05 102.1 -11.25 102.1 12.5 78.3 36.3 54.65 36.3 20.9 36.3 -12.9 12.5 -36.55 -11.25 -60.35 -45.05 -60.35 -78.75 -60.35 -102.55 -36.55 -126.25 -12.9 -126.25 20.9 M-137.85 20.9 Q-137.85 59.4 -110.7 86.55 -83.5 113.75 -45.05 113.75 -6.55 113.75 20.4 86.55 47.6 59.4 47.6 20.9 47.6 -17.65 20.4 -44.75 -6.55 -72.0 -45.05 -72.0 -83.5 -72.0 -110.7 -44.75 -137.85 -17.65 -137.85 20.9" fill="#ffffff" fill-rule="evenodd" stroke="none">
      <animate attributeName="fill" dur="2s" repeatCount="indefinite" values="#ffffff;#ffffff"/>
      <animate attributeName="fill-opacity" dur="2s" repeatCount="indefinite" values="1.0;1.0"/>
      <animate attributeName="d" dur="2s" repeatCount="indefinite" values="M-126.25 20.9 Q-126.25 54.65 -102.55 78.3 -78.75 102.1 -45.05 102.1 -11.25 102.1 12.5 78.3 36.3 54.65 36.3 20.9 36.3 -12.9 12.5 -36.55 -11.25 -60.35 -45.05 -60.35 -78.75 -60.35 -102.55 -36.55 -126.25 -12.9 -126.25 20.9 M-137.85 20.9 Q-137.85 59.4 -110.7 86.55 -83.5 113.75 -45.05 113.75 -6.55 113.75 20.4 86.55 47.6 59.4 47.6 20.9 47.6 -17.65 20.4 -44.75 -6.55 -72.0 -45.05 -72.0 -83.5 -72.0 -110.7 -44.75 -137.85 -17.65 -137.85 20.9;M-140.8 20.9 Q-140.8 60.75 -112.75 88.8 -84.55 116.85 -44.8 116.85 -4.85 116.85 23.25 88.8 51.35 60.75 51.35 20.9 51.35 -19.0 23.25 -47.05 -4.85 -75.1 -44.8 -75.1 -84.55 -75.1 -112.75 -47.05 -140.8 -19.0 -140.8 20.9 M-143.75 20.9 Q-143.75 61.95 -114.8 90.95 -85.85 119.95 -44.75 119.95 -3.7 119.95 25.1 90.95 54.05 61.95 54.05 20.9 54.05 -20.2 25.1 -49.2 -3.7 -78.15 -44.75 -78.15 -85.85 -78.15 -114.8 -49.2 -143.75 -20.2 -143.75 20.9"/>
    </path>
    <path d="M-137.85 20.9 Q-137.85 -17.65 -110.7 -44.75 -83.5 -72.0 -45.05 -72.0 -6.55 -72.0 20.4 -44.75 47.6 -17.65 47.6 20.9 47.6 59.4 20.4 86.55 -6.55 113.75 -45.05 113.75 -83.5 113.75 -110.7 86.55 -137.85 59.4 -137.85 20.9 M-126.25 20.9 Q-126.25 -12.9 -102.55 -36.55 -78.75 -60.35 -45.05 -60.35 -11.25 -60.35 12.5 -36.55 36.3 -12.9 36.3 20.9 36.3 54.65 12.5 78.3 -11.25 102.1 -45.05 102.1 -78.75 102.1 -102.55 78.3 -126.25 54.65 -126.25 20.9" fill="none" stroke="#000000" stroke-linecap="round" stroke-linejoin="round" stroke-opacity="0.0" stroke-width="1.0">
      <animate attributeName="stroke" dur="2s" repeatCount="indefinite" values="#000000;#000001"/>
      <animate attributeName="stroke-width" dur="2s" repeatCount="indefinite" values="0.0;0.0"/>
      <animate attributeName="fill-opacity" dur="2s" repeatCount="indefinite" values="0.0;0.0"/>
      <animate attributeName="d" dur="2s" repeatCount="indefinite" values="M-137.85 20.9 Q-137.85 -17.65 -110.7 -44.75 -83.5 -72.0 -45.05 -72.0 -6.55 -72.0 20.4 -44.75 47.6 -17.65 47.6 20.9 47.6 59.4 20.4 86.55 -6.55 113.75 -45.05 113.75 -83.5 113.75 -110.7 86.55 -137.85 59.4 -137.85 20.9 M-126.25 20.9 Q-126.25 -12.9 -102.55 -36.55 -78.75 -60.35 -45.05 -60.35 -11.25 -60.35 12.5 -36.55 36.3 -12.9 36.3 20.9 36.3 54.65 12.5 78.3 -11.25 102.1 -45.05 102.1 -78.75 102.1 -102.55 78.3 -126.25 54.65 -126.25 20.9;M-143.75 20.9 Q-143.75 -20.2 -114.8 -49.2 -85.85 -78.15 -44.75 -78.15 -3.7 -78.15 25.1 -49.2 54.05 -20.2 54.05 20.9 54.05 61.95 25.1 90.95 -3.7 119.95 -44.75 119.95 -85.85 119.95 -114.8 90.95 -143.75 61.95 -143.75 20.9 M-140.8 20.9 Q-140.8 -19.0 -112.75 -47.05 -84.55 -75.1 -44.8 -75.1 -4.85 -75.1 23.25 -47.05 51.35 -19.0 51.35 20.9 51.35 60.75 23.25 88.8 -4.85 116.85 -44.8 116.85 -84.55 116.85 -112.75 88.8 -140.8 60.75 -140.8 20.9"/>
    </path>
  </g>
</svg>
