<?xml version="1.0" encoding="UTF-8" standalone="no"?>
<svg xmlns:xlink="http://www.w3.org/1999/xlink" height="185.75px" width="185.4px" xmlns="http://www.w3.org/2000/svg">
  <g transform="matrix(1.0, 0.0, 0.0, 1.0, 70.25, 106.45)">
    <path d="M-43.85 -13.55 Q-43.85 14.0 -24.5 33.3 -5.1 52.7 22.4 52.7 49.95 52.7 69.35 33.3 88.75 14.0 88.75 -13.55 88.75 -41.1 69.35 -60.4 49.95 -79.8 22.4 -79.8 -5.1 -79.8 -24.5 -60.4 -43.85 -41.1 -43.85 -13.55 M-53.65 -13.55 Q-53.65 18.05 -31.4 40.25 -9.15 62.55 22.4 62.55 53.95 62.55 76.05 40.25 98.3 18.05 98.3 -13.55 98.3 -45.15 76.05 -67.35 53.95 -89.7 22.4 -89.7 -9.15 -89.7 -31.4 -67.35 -53.65 -45.15 -53.65 -13.55" fill="#333333" fill-opacity="0.08627451" fill-rule="evenodd" stroke="none">
      <animate attributeName="fill" dur="2s" repeatCount="indefinite" values="#333333;#333334"/>
      <animate attributeName="fill-opacity" dur="2s" repeatCount="indefinite" values="0.08627451;0.08627451"/>
      <animate attributeName="d" dur="2s" repeatCount="indefinite" values="M-43.85 -13.55 Q-43.85 14.0 -24.5 33.3 -5.1 52.7 22.4 52.7 49.95 52.7 69.35 33.3 88.75 14.0 88.75 -13.55 88.75 -41.1 69.35 -60.4 49.95 -79.8 22.4 -79.8 -5.1 -79.8 -24.5 -60.4 -43.85 -41.1 -43.85 -13.55 M-53.65 -13.55 Q-53.65 18.05 -31.4 40.25 -9.15 62.55 22.4 62.55 53.95 62.55 76.05 40.25 98.3 18.05 98.3 -13.55 98.3 -45.15 76.05 -67.35 53.95 -89.7 22.4 -89.7 -9.15 -89.7 -31.4 -67.35 -53.65 -45.15 -53.65 -13.55;M-58.7 -13.55 Q-58.7 20.2 -34.95 43.9 -11.15 67.7 22.55 67.7 56.3 67.7 80.1 43.9 103.9 20.2 103.9 -13.55 103.9 -47.3 80.1 -71.0 56.3 -94.8 22.55 -94.8 -11.15 -94.8 -34.95 -71.0 -58.7 -47.3 -58.7 -13.55 M-70.25 -13.55 Q-70.25 25.0 -43.1 52.1 -15.95 79.3 22.55 79.3 61.05 79.3 88.0 52.1 115.15 25.0 115.15 -13.55 115.15 -52.1 88.0 -79.2 61.05 -106.45 22.55 -106.45 -15.95 -106.45 -43.1 -79.2 -70.25 -52.1 -70.25 -13.55"/>
    </path>
    <path d="M-53.65 -13.55 Q-53.65 -45.15 -31.4 -67.35 -9.15 -89.7 22.4 -89.7 53.95 -89.7 76.05 -67.35 98.3 -45.15 98.3 -13.55 98.3 18.05 76.05 40.25 53.95 62.55 22.4 62.55 -9.15 62.55 -31.4 40.25 -53.65 18.05 -53.65 -13.55 M-43.85 -13.55 Q-43.85 -41.1 -24.5 -60.4 -5.1 -79.8 22.4 -79.8 49.95 -79.8 69.35 -60.4 88.75 -41.1 88.75 -13.55 88.75 14.0 69.35 33.3 49.95 52.7 22.4 52.7 -5.1 52.7 -24.5 33.3 -43.85 14.0 -43.85 -13.55" fill="none" stroke="#000000" stroke-linecap="round" stroke-linejoin="round" stroke-opacity="0.0" stroke-width="1.0">
      <animate attributeName="stroke" dur="2s" repeatCount="indefinite" values="#000000;#000001"/>
      <animate attributeName="stroke-width" dur="2s" repeatCount="indefinite" values="0.0;0.0"/>
      <animate attributeName="fill-opacity" dur="2s" repeatCount="indefinite" values="0.0;0.0"/>
      <animate attributeName="d" dur="2s" repeatCount="indefinite" values="M-53.65 -13.55 Q-53.65 -45.15 -31.4 -67.35 -9.15 -89.7 22.4 -89.7 53.95 -89.7 76.05 -67.35 98.3 -45.15 98.3 -13.55 98.3 18.05 76.05 40.25 53.95 62.55 22.4 62.55 -9.15 62.55 -31.4 40.25 -53.65 18.05 -53.65 -13.55 M-43.85 -13.55 Q-43.85 -41.1 -24.5 -60.4 -5.1 -79.8 22.4 -79.8 49.95 -79.8 69.35 -60.4 88.75 -41.1 88.75 -13.55 88.75 14.0 69.35 33.3 49.95 52.7 22.4 52.7 -5.1 52.7 -24.5 33.3 -43.85 14.0 -43.85 -13.55;M-70.25 -13.55 Q-70.25 -52.1 -43.1 -79.2 -15.95 -106.45 22.55 -106.45 61.05 -106.45 88.0 -79.2 115.15 -52.1 115.15 -13.55 115.15 25.0 88.0 52.1 61.05 79.3 22.55 79.3 -15.95 79.3 -43.1 52.1 -70.25 25.0 -70.25 -13.55 M-58.7 -13.55 Q-58.7 -47.3 -34.95 -71.0 -11.15 -94.8 22.55 -94.8 56.3 -94.8 80.1 -71.0 103.9 -47.3 103.9 -13.55 103.9 20.2 80.1 43.9 56.3 67.7 22.55 67.7 -11.15 67.7 -34.95 43.9 -58.7 20.2 -58.7 -13.55"/>
    </path>
  </g>
</svg>
