<?xml version="1.0" encoding="UTF-8" standalone="no"?>
<svg xmlns:xlink="http://www.w3.org/1999/xlink" height="185.75px" width="185.45px" xmlns="http://www.w3.org/2000/svg">
  <g transform="matrix(1.0, 0.0, 0.0, 1.0, 71.9, 109.65)">
    <path d="M-45.45 -16.8 Q-45.45 10.75 -26.1 30.05 -6.75 49.45 20.8 49.45 48.35 49.45 67.75 30.05 87.1 10.75 87.1 -16.8 87.1 -44.35 67.75 -63.6 48.35 -83.0 20.8 -83.0 -6.75 -83.0 -26.1 -63.6 -45.45 -44.35 -45.45 -16.8 M-55.3 -16.8 Q-55.3 14.8 -33.0 37.0 -10.75 59.35 20.8 59.35 52.3 59.35 74.45 37.0 96.7 14.8 96.7 -16.8 96.7 -48.35 74.45 -70.6 52.3 -92.9 20.8 -92.9 -10.75 -92.9 -33.0 -70.6 -55.3 -48.35 -55.3 -16.8" fill="#333333" fill-rule="evenodd" stroke="none">
      <animate attributeName="fill" dur="2s" repeatCount="indefinite" values="#333333;#333334"/>
      <animate attributeName="fill-opacity" dur="2s" repeatCount="indefinite" values="1.0;1.0"/>
      <animate attributeName="d" dur="2s" repeatCount="indefinite" values="M-45.45 -16.8 Q-45.45 10.75 -26.1 30.05 -6.75 49.45 20.8 49.45 48.35 49.45 67.75 30.05 87.1 10.75 87.1 -16.8 87.1 -44.35 67.75 -63.6 48.35 -83.0 20.8 -83.0 -6.75 -83.0 -26.1 -63.6 -45.45 -44.35 -45.45 -16.8 M-55.3 -16.8 Q-55.3 14.8 -33.0 37.0 -10.75 59.35 20.8 59.35 52.3 59.35 74.45 37.0 96.7 14.8 96.7 -16.8 96.7 -48.35 74.45 -70.6 52.3 -92.9 20.8 -92.9 -10.75 -92.9 -33.0 -70.6 -55.3 -48.35 -55.3 -16.8;M-60.3 -16.8 Q-60.3 17.0 -36.55 40.65 -12.8 64.45 20.95 64.45 54.7 64.45 78.5 40.65 102.25 17.0 102.25 -16.8 102.25 -50.55 78.5 -74.2 54.7 -98.0 20.95 -98.0 -12.8 -98.0 -36.55 -74.2 -60.3 -50.55 -60.3 -16.8 M-71.9 -16.8 Q-71.9 21.75 -44.7 48.85 -17.55 76.1 20.95 76.1 59.4 76.1 86.4 48.85 113.55 21.75 113.55 -16.8 113.55 -55.3 86.4 -82.45 59.4 -109.65 20.95 -109.65 -17.55 -109.65 -44.7 -82.45 -71.9 -55.3 -71.9 -16.8"/>
    </path>
    <path d="M-55.3 -16.8 Q-55.3 -48.35 -33.0 -70.6 -10.75 -92.9 20.8 -92.9 52.3 -92.9 74.45 -70.6 96.7 -48.35 96.7 -16.8 96.7 14.8 74.45 37.0 52.3 59.35 20.8 59.35 -10.75 59.35 -33.0 37.0 -55.3 14.8 -55.3 -16.8 M-45.45 -16.8 Q-45.45 -44.35 -26.1 -63.6 -6.75 -83.0 20.8 -83.0 48.35 -83.0 67.75 -63.6 87.1 -44.35 87.1 -16.8 87.1 10.75 67.75 30.05 48.35 49.45 20.8 49.45 -6.75 49.45 -26.1 30.05 -45.45 10.75 -45.45 -16.8" fill="none" stroke="#000000" stroke-linecap="round" stroke-linejoin="round" stroke-opacity="0.0" stroke-width="1.0">
      <animate attributeName="stroke" dur="2s" repeatCount="indefinite" values="#000000;#000001"/>
      <animate attributeName="stroke-width" dur="2s" repeatCount="indefinite" values="0.0;0.0"/>
      <animate attributeName="fill-opacity" dur="2s" repeatCount="indefinite" values="0.0;0.0"/>
      <animate attributeName="d" dur="2s" repeatCount="indefinite" values="M-55.3 -16.8 Q-55.3 -48.35 -33.0 -70.6 -10.75 -92.9 20.8 -92.9 52.3 -92.9 74.45 -70.6 96.7 -48.35 96.7 -16.8 96.7 14.8 74.45 37.0 52.3 59.35 20.8 59.35 -10.75 59.35 -33.0 37.0 -55.3 14.8 -55.3 -16.8 M-45.45 -16.8 Q-45.45 -44.35 -26.1 -63.6 -6.75 -83.0 20.8 -83.0 48.35 -83.0 67.75 -63.6 87.1 -44.35 87.1 -16.8 87.1 10.75 67.75 30.05 48.35 49.45 20.8 49.45 -6.75 49.45 -26.1 30.05 -45.45 10.75 -45.45 -16.8;M-71.9 -16.8 Q-71.9 -55.3 -44.7 -82.45 -17.55 -109.65 20.95 -109.65 59.4 -109.65 86.4 -82.45 113.55 -55.3 113.55 -16.8 113.55 21.75 86.4 48.85 59.4 76.1 20.95 76.1 -17.55 76.1 -44.7 48.85 -71.9 21.75 -71.9 -16.8 M-60.3 -16.8 Q-60.3 -50.55 -36.55 -74.2 -12.8 -98.0 20.95 -98.0 54.7 -98.0 78.5 -74.2 102.25 -50.55 102.25 -16.8 102.25 17.0 78.5 40.65 54.7 64.45 20.95 64.45 -12.8 64.45 -36.55 40.65 -60.3 17.0 -60.3 -16.8"/>
    </path>
  </g>
</svg>
