<?xml version="1.0" encoding="UTF-8" standalone="no"?>
<svg xmlns:xlink="http://www.w3.org/1999/xlink" height="109.85px" width="109.7px" xmlns="http://www.w3.org/2000/svg">
  <g transform="matrix(1.0, 0.0, 0.0, 1.0, 53.25, 52.3)">
    <path d="M-5.35 2.6 Q-5.35 5.25 -3.5 7.05 -1.65 8.95 1.0 8.95 3.65 8.95 5.45 7.05 7.3 5.25 7.3 2.6 7.3 -0.05 5.45 -1.85 3.65 -3.75 1.0 -3.75 -1.65 -3.75 -3.5 -1.85 -5.35 -0.05 -5.35 2.6 M-8.15 2.6 Q-8.15 6.4 -5.5 9.1 -2.8 11.75 1.0 11.75 4.8 11.75 7.45 9.1 10.15 6.4 10.15 2.6 10.15 -1.2 7.45 -3.9 4.8 -6.55 1.0 -6.55 -2.8 -6.55 -5.5 -3.9 -8.15 -1.2 -8.15 2.6" fill="#000000" fill-opacity="0.08627451" fill-rule="evenodd" stroke="none">
      <animate attributeName="fill" dur="2s" repeatCount="indefinite" values="#000000;#000001"/>
      <animate attributeName="fill-opacity" dur="2s" repeatCount="indefinite" values="0.08627451;0.08627451"/>
      <animate attributeName="d" dur="2s" repeatCount="indefinite" values="M-5.35 2.6 Q-5.35 5.25 -3.5 7.05 -1.65 8.95 1.0 8.95 3.65 8.95 5.45 7.05 7.3 5.25 7.3 2.6 7.3 -0.05 5.45 -1.85 3.65 -3.75 1.0 -3.75 -1.65 -3.75 -3.5 -1.85 -5.35 -0.05 -5.35 2.6 M-8.15 2.6 Q-8.15 6.4 -5.5 9.1 -2.8 11.75 1.0 11.75 4.8 11.75 7.45 9.1 10.15 6.4 10.15 2.6 10.15 -1.2 7.45 -3.9 4.8 -6.55 1.0 -6.55 -2.8 -6.55 -5.5 -3.9 -8.15 -1.2 -8.15 2.6;M-46.4 2.6 Q-46.4 22.6 -32.35 36.6 -18.3 50.7 1.65 50.7 21.65 50.7 35.75 36.6 49.8 22.6 49.8 2.6 49.8 -17.35 35.75 -31.35 21.65 -45.45 1.65 -45.45 -18.3 -45.45 -32.35 -31.35 -46.4 -17.35 -46.4 2.6 M-53.25 2.6 Q-53.25 25.4 -37.2 41.45 -21.1 57.55 1.65 57.55 24.45 57.55 40.4 41.45 56.45 25.4 56.45 2.6 56.45 -20.2 40.4 -36.2 24.45 -52.3 1.65 -52.3 -21.1 -52.3 -37.2 -36.2 -53.25 -20.2 -53.25 2.6"/>
    </path>
    <path d="M-8.15 2.6 Q-8.15 -1.2 -5.5 -3.9 -2.8 -6.55 1.0 -6.55 4.8 -6.55 7.45 -3.9 10.15 -1.2 10.15 2.6 10.15 6.4 7.45 9.1 4.8 11.75 1.0 11.75 -2.8 11.75 -5.5 9.1 -8.15 6.4 -8.15 2.6 M-5.35 2.6 Q-5.35 -0.05 -3.5 -1.85 -1.65 -3.75 1.0 -3.75 3.65 -3.75 5.45 -1.85 7.3 -0.05 7.3 2.6 7.3 5.25 5.45 7.05 3.65 8.95 1.0 8.95 -1.65 8.95 -3.5 7.05 -5.35 5.25 -5.35 2.6" fill="none" stroke="#000000" stroke-linecap="round" stroke-linejoin="round" stroke-opacity="0.0" stroke-width="1.0">
      <animate attributeName="stroke" dur="2s" repeatCount="indefinite" values="#000000;#000001"/>
      <animate attributeName="stroke-width" dur="2s" repeatCount="indefinite" values="0.0;0.0"/>
      <animate attributeName="fill-opacity" dur="2s" repeatCount="indefinite" values="0.0;0.0"/>
      <animate attributeName="d" dur="2s" repeatCount="indefinite" values="M-8.15 2.6 Q-8.15 -1.2 -5.5 -3.9 -2.8 -6.55 1.0 -6.55 4.8 -6.55 7.45 -3.9 10.15 -1.2 10.15 2.6 10.15 6.4 7.45 9.1 4.8 11.75 1.0 11.75 -2.8 11.75 -5.5 9.1 -8.15 6.4 -8.15 2.6 M-5.35 2.6 Q-5.35 -0.05 -3.5 -1.85 -1.65 -3.75 1.0 -3.75 3.65 -3.75 5.45 -1.85 7.3 -0.05 7.3 2.6 7.3 5.25 5.45 7.05 3.65 8.95 1.0 8.95 -1.65 8.95 -3.5 7.05 -5.35 5.25 -5.35 2.6;M-53.25 2.6 Q-53.25 -20.2 -37.2 -36.2 -21.1 -52.3 1.65 -52.3 24.45 -52.3 40.4 -36.2 56.45 -20.2 56.45 2.6 56.45 25.4 40.4 41.45 24.45 57.55 1.65 57.55 -21.1 57.55 -37.2 41.45 -53.25 25.4 -53.25 2.6 M-46.4 2.6 Q-46.4 -17.35 -32.35 -31.35 -18.3 -45.45 1.65 -45.45 21.65 -45.45 35.75 -31.35 49.8 -17.35 49.8 2.6 49.8 22.6 35.75 36.6 21.65 50.7 1.65 50.7 -18.3 50.7 -32.35 36.6 -46.4 22.6 -46.4 2.6"/>
    </path>
  </g>
</svg>
