<?xml version="1.0" encoding="UTF-8" standalone="no"?>
<svg xmlns:xlink="http://www.w3.org/1999/xlink" height="215.75px" width="215.4px" xmlns="http://www.w3.org/2000/svg">
  <g transform="matrix(1.0, 0.0, 0.0, 1.0, 84.95, 121.45)">
    <path d="M-58.7 -13.55 Q-58.7 20.2 -34.95 43.9 -11.15 67.7 22.55 67.7 56.3 67.7 80.1 43.9 103.9 20.2 103.9 -13.55 103.9 -47.3 80.1 -71.0 56.3 -94.8 22.55 -94.8 -11.15 -94.8 -34.95 -71.0 -58.7 -47.3 -58.7 -13.55 M-70.25 -13.55 Q-70.25 25.0 -43.1 52.1 -15.95 79.3 22.55 79.3 61.05 79.3 88.0 52.1 115.15 25.0 115.15 -13.55 115.15 -52.1 88.0 -79.2 61.05 -106.45 22.55 -106.45 -15.95 -106.45 -43.1 -79.2 -70.25 -52.1 -70.25 -13.55" fill="#333333" fill-opacity="0.08627451" fill-rule="evenodd" stroke="none">
      <animate attributeName="fill" dur="2s" repeatCount="indefinite" values="#333333;#333334"/>
      <animate attributeName="fill-opacity" dur="2s" repeatCount="indefinite" values="0.08627451;0.08627451"/>
      <animate attributeName="d" dur="2s" repeatCount="indefinite" values="M-58.7 -13.55 Q-58.7 20.2 -34.95 43.9 -11.15 67.7 22.55 67.7 56.3 67.7 80.1 43.9 103.9 20.2 103.9 -13.55 103.9 -47.3 80.1 -71.0 56.3 -94.8 22.55 -94.8 -11.15 -94.8 -34.95 -71.0 -58.7 -47.3 -58.7 -13.55 M-70.25 -13.55 Q-70.25 25.0 -43.1 52.1 -15.95 79.3 22.55 79.3 61.05 79.3 88.0 52.1 115.15 25.0 115.15 -13.55 115.15 -52.1 88.0 -79.2 61.05 -106.45 22.55 -106.45 -15.95 -106.45 -43.1 -79.2 -70.25 -52.1 -70.25 -13.55;M-81.8 -13.55 Q-81.8 29.9 -51.2 60.4 -20.5 91.0 22.75 91.0 66.35 91.0 96.9 60.4 127.55 29.9 127.55 -13.55 127.55 -57.05 96.9 -87.5 66.35 -118.1 22.75 -118.1 -20.5 -118.1 -51.2 -87.5 -81.8 -57.05 -81.8 -13.55 M-84.95 -13.55 Q-84.95 31.2 -53.4 62.75 -21.9 94.3 22.85 94.3 67.55 94.3 98.95 62.75 130.45 31.2 130.45 -13.55 130.45 -58.35 98.95 -89.85 67.55 -121.45 22.85 -121.45 -21.9 -121.45 -53.4 -89.85 -84.95 -58.35 -84.95 -13.55"/>
    </path>
    <path d="M-70.25 -13.55 Q-70.25 -52.1 -43.1 -79.2 -15.95 -106.45 22.55 -106.45 61.05 -106.45 88.0 -79.2 115.15 -52.1 115.15 -13.55 115.15 25.0 88.0 52.1 61.05 79.3 22.55 79.3 -15.95 79.3 -43.1 52.1 -70.25 25.0 -70.25 -13.55 M-58.7 -13.55 Q-58.7 -47.3 -34.95 -71.0 -11.15 -94.8 22.55 -94.8 56.3 -94.8 80.1 -71.0 103.9 -47.3 103.9 -13.55 103.9 20.2 80.1 43.9 56.3 67.7 22.55 67.7 -11.15 67.7 -34.95 43.9 -58.7 20.2 -58.7 -13.55" fill="none" stroke="#000000" stroke-linecap="round" stroke-linejoin="round" stroke-opacity="0.0" stroke-width="1.0">
      <animate attributeName="stroke" dur="2s" repeatCount="indefinite" values="#000000;#000001"/>
      <animate attributeName="stroke-width" dur="2s" repeatCount="indefinite" values="0.0;0.0"/>
      <animate attributeName="fill-opacity" dur="2s" repeatCount="indefinite" values="0.0;0.0"/>
      <animate attributeName="d" dur="2s" repeatCount="indefinite" values="M-70.25 -13.55 Q-70.25 -52.1 -43.1 -79.2 -15.95 -106.45 22.55 -106.45 61.05 -106.45 88.0 -79.2 115.15 -52.1 115.15 -13.55 115.15 25.0 88.0 52.1 61.05 79.3 22.55 79.3 -15.95 79.3 -43.1 52.1 -70.25 25.0 -70.25 -13.55 M-58.7 -13.55 Q-58.7 -47.3 -34.95 -71.0 -11.15 -94.8 22.55 -94.8 56.3 -94.8 80.1 -71.0 103.9 -47.3 103.9 -13.55 103.9 20.2 80.1 43.9 56.3 67.7 22.55 67.7 -11.15 67.7 -34.95 43.9 -58.7 20.2 -58.7 -13.55;M-84.95 -13.55 Q-84.95 -58.35 -53.4 -89.85 -21.9 -121.45 22.85 -121.45 67.55 -121.45 98.95 -89.85 130.45 -58.35 130.45 -13.55 130.45 31.2 98.95 62.75 67.55 94.3 22.85 94.3 -21.9 94.3 -53.4 62.75 -84.95 31.2 -84.95 -13.55 M-81.8 -13.55 Q-81.8 -57.05 -51.2 -87.5 -20.5 -118.1 22.75 -118.1 66.35 -118.1 96.9 -87.5 127.55 -57.05 127.55 -13.55 127.55 29.9 96.9 60.4 66.35 91.0 22.75 91.0 -20.5 91.0 -51.2 60.4 -81.8 29.9 -81.8 -13.55"/>
    </path>
  </g>
</svg>
