<?xml version="1.0" encoding="UTF-8" standalone="no"?>
<svg xmlns:xlink="http://www.w3.org/1999/xlink" height="215.75px" width="215.45px" xmlns="http://www.w3.org/2000/svg">
  <g transform="matrix(1.0, 0.0, 0.0, 1.0, 86.6, 124.65)">
    <path d="M-60.3 -16.8 Q-60.3 17.0 -36.55 40.65 -12.8 64.45 20.95 64.45 54.7 64.45 78.5 40.65 102.25 17.0 102.25 -16.8 102.25 -50.55 78.5 -74.2 54.7 -98.0 20.95 -98.0 -12.8 -98.0 -36.55 -74.2 -60.3 -50.55 -60.3 -16.8 M-71.9 -16.8 Q-71.9 21.75 -44.7 48.85 -17.55 76.1 20.95 76.1 59.4 76.1 86.4 48.85 113.55 21.75 113.55 -16.8 113.55 -55.3 86.4 -82.45 59.4 -109.65 20.95 -109.65 -17.55 -109.65 -44.7 -82.45 -71.9 -55.3 -71.9 -16.8" fill="#333333" fill-rule="evenodd" stroke="none">
      <animate attributeName="fill" dur="2s" repeatCount="indefinite" values="#333333;#333334"/>
      <animate attributeName="fill-opacity" dur="2s" repeatCount="indefinite" values="1.0;1.0"/>
      <animate attributeName="d" dur="2s" repeatCount="indefinite" values="M-60.3 -16.8 Q-60.3 17.0 -36.55 40.65 -12.8 64.45 20.95 64.45 54.7 64.45 78.5 40.65 102.25 17.0 102.25 -16.8 102.25 -50.55 78.5 -74.2 54.7 -98.0 20.95 -98.0 -12.8 -98.0 -36.55 -74.2 -60.3 -50.55 -60.3 -16.8 M-71.9 -16.8 Q-71.9 21.75 -44.7 48.85 -17.55 76.1 20.95 76.1 59.4 76.1 86.4 48.85 113.55 21.75 113.55 -16.8 113.55 -55.3 86.4 -82.45 59.4 -109.65 20.95 -109.65 -17.55 -109.65 -44.7 -82.45 -71.9 -55.3 -71.9 -16.8;M-83.4 -16.8 Q-83.4 26.7 -52.8 57.2 -22.15 87.8 21.15 87.8 64.7 87.8 95.3 57.2 125.95 26.7 125.95 -16.8 125.95 -60.25 95.3 -90.75 64.7 -121.35 21.15 -121.35 -22.15 -121.35 -52.8 -90.75 -83.4 -60.25 -83.4 -16.8 M-86.6 -16.8 Q-86.6 28.0 -55.0 59.5 -23.55 91.1 21.25 91.1 65.95 91.1 97.35 59.5 128.85 28.0 128.85 -16.8 128.85 -61.55 97.35 -93.1 65.95 -124.65 21.25 -124.65 -23.55 -124.65 -55.0 -93.1 -86.6 -61.55 -86.6 -16.8"/>
    </path>
    <path d="M-71.9 -16.8 Q-71.9 -55.3 -44.7 -82.45 -17.55 -109.65 20.95 -109.65 59.4 -109.65 86.4 -82.45 113.55 -55.3 113.55 -16.8 113.55 21.75 86.4 48.85 59.4 76.1 20.95 76.1 -17.55 76.1 -44.7 48.85 -71.9 21.75 -71.9 -16.8 M-60.3 -16.8 Q-60.3 -50.55 -36.55 -74.2 -12.8 -98.0 20.95 -98.0 54.7 -98.0 78.5 -74.2 102.25 -50.55 102.25 -16.8 102.25 17.0 78.5 40.65 54.7 64.45 20.95 64.45 -12.8 64.45 -36.55 40.65 -60.3 17.0 -60.3 -16.8" fill="none" stroke="#000000" stroke-linecap="round" stroke-linejoin="round" stroke-opacity="0.0" stroke-width="1.0">
      <animate attributeName="stroke" dur="2s" repeatCount="indefinite" values="#000000;#000001"/>
      <animate attributeName="stroke-width" dur="2s" repeatCount="indefinite" values="0.0;0.0"/>
      <animate attributeName="fill-opacity" dur="2s" repeatCount="indefinite" values="0.0;0.0"/>
      <animate attributeName="d" dur="2s" repeatCount="indefinite" values="M-71.9 -16.8 Q-71.9 -55.3 -44.7 -82.45 -17.55 -109.65 20.95 -109.65 59.4 -109.65 86.4 -82.45 113.55 -55.3 113.55 -16.8 113.55 21.75 86.4 48.85 59.4 76.1 20.95 76.1 -17.55 76.1 -44.7 48.85 -71.9 21.75 -71.9 -16.8 M-60.3 -16.8 Q-60.3 -50.55 -36.55 -74.2 -12.8 -98.0 20.95 -98.0 54.7 -98.0 78.5 -74.2 102.25 -50.55 102.25 -16.8 102.25 17.0 78.5 40.65 54.7 64.45 20.95 64.45 -12.8 64.45 -36.55 40.65 -60.3 17.0 -60.3 -16.8;M-86.6 -16.8 Q-86.6 -61.55 -55.0 -93.1 -23.55 -124.65 21.25 -124.65 65.95 -124.65 97.35 -93.1 128.85 -61.55 128.85 -16.8 128.85 28.0 97.35 59.5 65.95 91.1 21.25 91.1 -23.55 91.1 -55.0 59.5 -86.6 28.0 -86.6 -16.8 M-83.4 -16.8 Q-83.4 -60.25 -52.8 -90.75 -22.15 -121.35 21.15 -121.35 64.7 -121.35 95.3 -90.75 125.95 -60.25 125.95 -16.8 125.95 26.7 95.3 57.2 64.7 87.8 21.15 87.8 -22.15 87.8 -52.8 57.2 -83.4 26.7 -83.4 -16.8"/>
    </path>
  </g>
</svg>
