<?xml version="1.0" encoding="UTF-8" standalone="no"?>
<svg xmlns:xlink="http://www.w3.org/1999/xlink" height="109.9px" width="109.7px" xmlns="http://www.w3.org/2000/svg">
  <g transform="matrix(1.0, 0.0, 0.0, 1.0, -8.1, 30.2)">
    <path d="M56.0 24.7 Q56.0 27.35 57.85 29.2 59.7 31.05 62.35 31.05 65.0 31.05 66.8 29.2 68.65 27.35 68.65 24.7 68.65 22.1 66.8 20.25 65.0 18.4 62.35 18.4 59.7 18.4 57.85 20.25 56.0 22.1 56.0 24.7 M53.2 24.7 Q53.2 28.5 55.85 31.2 58.55 33.85 62.35 33.85 66.1 33.85 68.75 31.2 71.45 28.5 71.45 24.7 71.45 20.95 68.75 18.25 66.1 15.6 62.35 15.6 58.55 15.6 55.85 18.25 53.2 20.95 53.2 24.7" fill="#738598" fill-rule="evenodd" stroke="none">
      <animate attributeName="fill" dur="2s" repeatCount="indefinite" values="#738598;#738599"/>
      <animate attributeName="fill-opacity" dur="2s" repeatCount="indefinite" values="1.0;1.0"/>
      <animate attributeName="d" dur="2s" repeatCount="indefinite" values="M56.0 24.7 Q56.0 27.35 57.85 29.2 59.7 31.05 62.35 31.05 65.0 31.05 66.8 29.2 68.65 27.35 68.65 24.7 68.65 22.1 66.8 20.25 65.0 18.4 62.35 18.4 59.7 18.4 57.85 20.25 56.0 22.1 56.0 24.7 M53.2 24.7 Q53.2 28.5 55.85 31.2 58.55 33.85 62.35 33.85 66.1 33.85 68.75 31.2 71.45 28.5 71.45 24.7 71.45 20.95 68.75 18.25 66.1 15.6 62.35 15.6 58.55 15.6 55.85 18.25 53.2 20.95 53.2 24.7;M14.95 24.7 Q14.95 44.7 29.0 58.75 43.05 72.8 63.0 72.8 83.0 72.8 97.05 58.75 111.15 44.7 111.15 24.7 111.15 4.8 97.05 -9.25 83.0 -23.3 63.0 -23.3 43.05 -23.3 29.0 -9.25 14.95 4.8 14.95 24.7 M8.1 24.7 Q8.1 47.55 24.15 63.6 40.25 79.7 63.0 79.7 85.8 79.7 101.75 63.6 117.8 47.55 117.8 24.7 117.8 1.9 101.75 -14.05 85.8 -30.2 63.0 -30.2 40.25 -30.2 24.15 -14.05 8.1 1.9 8.1 24.7"/>
    </path>
    <path d="M53.2 24.7 Q53.2 20.95 55.85 18.25 58.55 15.6 62.35 15.6 66.1 15.6 68.75 18.25 71.45 20.95 71.45 24.7 71.45 28.5 68.75 31.2 66.1 33.85 62.35 33.85 58.55 33.85 55.85 31.2 53.2 28.5 53.2 24.7 M56.0 24.7 Q56.0 22.1 57.85 20.25 59.7 18.4 62.35 18.4 65.0 18.4 66.8 20.25 68.65 22.1 68.65 24.7 68.65 27.35 66.8 29.2 65.0 31.05 62.35 31.05 59.7 31.05 57.85 29.2 56.0 27.35 56.0 24.7" fill="none" stroke="#000000" stroke-linecap="round" stroke-linejoin="round" stroke-opacity="0.0" stroke-width="1.0">
      <animate attributeName="stroke" dur="2s" repeatCount="indefinite" values="#000000;#000001"/>
      <animate attributeName="stroke-width" dur="2s" repeatCount="indefinite" values="0.0;0.0"/>
      <animate attributeName="fill-opacity" dur="2s" repeatCount="indefinite" values="0.0;0.0"/>
      <animate attributeName="d" dur="2s" repeatCount="indefinite" values="M53.2 24.7 Q53.2 20.95 55.85 18.25 58.55 15.6 62.35 15.6 66.1 15.6 68.75 18.25 71.45 20.95 71.45 24.7 71.45 28.5 68.75 31.2 66.1 33.85 62.35 33.85 58.55 33.85 55.85 31.2 53.2 28.5 53.2 24.7 M56.0 24.7 Q56.0 22.1 57.85 20.25 59.7 18.4 62.35 18.4 65.0 18.4 66.8 20.25 68.65 22.1 68.65 24.7 68.65 27.35 66.8 29.2 65.0 31.05 62.35 31.05 59.7 31.05 57.85 29.2 56.0 27.35 56.0 24.7;M8.1 24.7 Q8.1 1.9 24.15 -14.05 40.25 -30.2 63.0 -30.2 85.8 -30.2 101.75 -14.05 117.8 1.9 117.8 24.7 117.8 47.55 101.75 63.6 85.8 79.7 63.0 79.7 40.25 79.7 24.15 63.6 8.1 47.55 8.1 24.7 M14.95 24.7 Q14.95 4.8 29.0 -9.25 43.05 -23.3 63.0 -23.3 83.0 -23.3 97.05 -9.25 111.15 4.8 111.15 24.7 111.15 44.7 97.05 58.75 83.0 72.8 63.0 72.8 43.05 72.8 29.0 58.75 14.95 44.7 14.95 24.7"/>
    </path>
  </g>
</svg>
