<?xml version="1.0" encoding="UTF-8" standalone="no"?>
<svg xmlns:xlink="http://www.w3.org/1999/xlink" height="115.05px" width="114.9px" xmlns="http://www.w3.org/2000/svg">
  <g transform="matrix(1.0, 0.0, 0.0, 1.0, 55.6, 54.9)">
    <path d="M-46.4 2.6 Q-46.4 22.6 -32.35 36.6 -18.3 50.7 1.65 50.7 21.65 50.7 35.75 36.6 49.8 22.6 49.8 2.6 49.8 -17.35 35.75 -31.35 21.65 -45.45 1.65 -45.45 -18.3 -45.45 -32.35 -31.35 -46.4 -17.35 -46.4 2.6 M-53.25 2.6 Q-53.25 25.4 -37.2 41.45 -21.1 57.55 1.65 57.55 24.45 57.55 40.4 41.45 56.45 25.4 56.45 2.6 56.45 -20.2 40.4 -36.2 24.45 -52.3 1.65 -52.3 -21.1 -52.3 -37.2 -36.2 -53.25 -20.2 -53.25 2.6" fill="#000000" fill-opacity="0.08627451" fill-rule="evenodd" stroke="none">
      <animate attributeName="fill" dur="2s" repeatCount="indefinite" values="#000000;#000001"/>
      <animate attributeName="fill-opacity" dur="2s" repeatCount="indefinite" values="0.08627451;0.08627451"/>
      <animate attributeName="d" dur="2s" repeatCount="indefinite" values="M-46.4 2.6 Q-46.4 22.6 -32.35 36.6 -18.3 50.7 1.65 50.7 21.65 50.7 35.75 36.6 49.8 22.6 49.8 2.6 49.8 -17.35 35.75 -31.35 21.65 -45.45 1.65 -45.45 -18.3 -45.45 -32.35 -31.35 -46.4 -17.35 -46.4 2.6 M-53.25 2.6 Q-53.25 25.4 -37.2 41.45 -21.1 57.55 1.65 57.55 24.45 57.55 40.4 41.45 56.45 25.4 56.45 2.6 56.45 -20.2 40.4 -36.2 24.45 -52.3 1.65 -52.3 -21.1 -52.3 -37.2 -36.2 -53.25 -20.2 -53.25 2.6;M-53.8 2.6 Q-53.8 25.75 -37.55 42.05 -21.2 58.35 1.85 58.35 25.15 58.35 41.45 42.05 57.75 25.75 57.75 2.6 57.75 -20.5 41.45 -36.85 25.15 -53.1 1.85 -53.1 -21.2 -53.1 -37.55 -36.85 -53.8 -20.5 -53.8 2.6 M-55.6 2.6 Q-55.6 26.5 -38.75 43.3 -21.9 60.15 1.9 60.15 25.75 60.15 42.5 43.3 59.3 26.5 59.3 2.6 59.3 -21.25 42.5 -38.05 25.75 -54.9 1.9 -54.9 -21.9 -54.9 -38.75 -38.05 -55.6 -21.25 -55.6 2.6"/>
    </path>
    <path d="M-53.25 2.6 Q-53.25 -20.2 -37.2 -36.2 -21.1 -52.3 1.65 -52.3 24.45 -52.3 40.4 -36.2 56.45 -20.2 56.45 2.6 56.45 25.4 40.4 41.45 24.45 57.55 1.65 57.55 -21.1 57.55 -37.2 41.45 -53.25 25.4 -53.25 2.6 M-46.4 2.6 Q-46.4 -17.35 -32.35 -31.35 -18.3 -45.45 1.65 -45.45 21.65 -45.45 35.75 -31.35 49.8 -17.35 49.8 2.6 49.8 22.6 35.75 36.6 21.65 50.7 1.65 50.7 -18.3 50.7 -32.35 36.6 -46.4 22.6 -46.4 2.6" fill="none" stroke="#000000" stroke-linecap="round" stroke-linejoin="round" stroke-opacity="0.0" stroke-width="1.0">
      <animate attributeName="stroke" dur="2s" repeatCount="indefinite" values="#000000;#000001"/>
      <animate attributeName="stroke-width" dur="2s" repeatCount="indefinite" values="0.0;0.0"/>
      <animate attributeName="fill-opacity" dur="2s" repeatCount="indefinite" values="0.0;0.0"/>
      <animate attributeName="d" dur="2s" repeatCount="indefinite" values="M-53.25 2.6 Q-53.25 -20.2 -37.2 -36.2 -21.1 -52.3 1.65 -52.3 24.45 -52.3 40.4 -36.2 56.45 -20.2 56.45 2.6 56.45 25.4 40.4 41.45 24.45 57.55 1.65 57.55 -21.1 57.55 -37.2 41.45 -53.25 25.4 -53.25 2.6 M-46.4 2.6 Q-46.4 -17.35 -32.35 -31.35 -18.3 -45.45 1.65 -45.45 21.65 -45.45 35.75 -31.35 49.8 -17.35 49.8 2.6 49.8 22.6 35.75 36.6 21.65 50.7 1.65 50.7 -18.3 50.7 -32.35 36.6 -46.4 22.6 -46.4 2.6;M-55.6 2.6 Q-55.6 -21.25 -38.75 -38.05 -21.9 -54.9 1.9 -54.9 25.75 -54.9 42.5 -38.05 59.3 -21.25 59.3 2.6 59.3 26.5 42.5 43.3 25.75 60.15 1.9 60.15 -21.9 60.15 -38.75 43.3 -55.6 26.5 -55.6 2.6 M-53.8 2.6 Q-53.8 -20.5 -37.55 -36.85 -21.2 -53.1 1.85 -53.1 25.15 -53.1 41.45 -36.85 57.75 -20.5 57.75 2.6 57.75 25.75 41.45 42.05 25.15 58.35 1.85 58.35 -21.2 58.35 -37.55 42.05 -53.8 25.75 -53.8 2.6"/>
    </path>
  </g>
</svg>
