<?xml version="1.0" encoding="UTF-8" standalone="no"?>
<svg xmlns:xlink="http://www.w3.org/1999/xlink" height="115.0px" width="114.9px" xmlns="http://www.w3.org/2000/svg">
  <g transform="matrix(1.0, 0.0, 0.0, 1.0, -5.75, 32.75)">
    <path d="M14.95 24.7 Q14.95 44.7 29.0 58.75 43.05 72.8 63.0 72.8 83.0 72.8 97.05 58.75 111.15 44.7 111.15 24.7 111.15 4.8 97.05 -9.25 83.0 -23.3 63.0 -23.3 43.05 -23.3 29.0 -9.25 14.95 4.8 14.95 24.7 M8.1 24.7 Q8.1 47.55 24.15 63.6 40.25 79.7 63.0 79.7 85.8 79.7 101.75 63.6 117.8 47.55 117.8 24.7 117.8 1.9 101.75 -14.05 85.8 -30.2 63.0 -30.2 40.25 -30.2 24.15 -14.05 8.1 1.9 8.1 24.7" fill="#738598" fill-rule="evenodd" stroke="none">
      <animate attributeName="fill" dur="2s" repeatCount="indefinite" values="#738598;#738599"/>
      <animate attributeName="fill-opacity" dur="2s" repeatCount="indefinite" values="1.0;1.0"/>
      <animate attributeName="d" dur="2s" repeatCount="indefinite" values="M14.95 24.7 Q14.95 44.7 29.0 58.75 43.05 72.8 63.0 72.8 83.0 72.8 97.05 58.75 111.15 44.7 111.15 24.7 111.15 4.8 97.05 -9.25 83.0 -23.3 63.0 -23.3 43.05 -23.3 29.0 -9.25 14.95 4.8 14.95 24.7 M8.1 24.7 Q8.1 47.55 24.15 63.6 40.25 79.7 63.0 79.7 85.8 79.7 101.75 63.6 117.8 47.55 117.8 24.7 117.8 1.9 101.75 -14.05 85.8 -30.2 63.0 -30.2 40.25 -30.2 24.15 -14.05 8.1 1.9 8.1 24.7;M7.55 24.7 Q7.55 47.9 23.8 64.2 40.15 80.45 63.2 80.45 86.5 80.45 102.8 64.2 119.1 47.9 119.1 24.7 119.1 1.6 102.8 -14.7 86.5 -30.95 63.2 -30.95 40.15 -30.95 23.8 -14.7 7.55 1.6 7.55 24.7 M5.75 24.7 Q5.75 48.6 22.6 65.45 39.4 82.25 63.25 82.25 87.1 82.25 103.85 65.45 120.65 48.6 120.65 24.7 120.65 0.9 103.85 -15.95 87.1 -32.75 63.25 -32.75 39.4 -32.75 22.6 -15.95 5.75 0.9 5.75 24.7"/>
    </path>
    <path d="M8.1 24.7 Q8.1 1.9 24.15 -14.05 40.25 -30.2 63.0 -30.2 85.8 -30.2 101.75 -14.05 117.8 1.9 117.8 24.7 117.8 47.55 101.75 63.6 85.8 79.7 63.0 79.7 40.25 79.7 24.15 63.6 8.1 47.55 8.1 24.7 M14.95 24.7 Q14.95 4.8 29.0 -9.25 43.05 -23.3 63.0 -23.3 83.0 -23.3 97.05 -9.25 111.15 4.8 111.15 24.7 111.15 44.7 97.05 58.75 83.0 72.8 63.0 72.8 43.05 72.8 29.0 58.75 14.95 44.7 14.95 24.7" fill="none" stroke="#000000" stroke-linecap="round" stroke-linejoin="round" stroke-opacity="0.0" stroke-width="1.0">
      <animate attributeName="stroke" dur="2s" repeatCount="indefinite" values="#000000;#000001"/>
      <animate attributeName="stroke-width" dur="2s" repeatCount="indefinite" values="0.0;0.0"/>
      <animate attributeName="fill-opacity" dur="2s" repeatCount="indefinite" values="0.0;0.0"/>
      <animate attributeName="d" dur="2s" repeatCount="indefinite" values="M8.1 24.7 Q8.1 1.9 24.15 -14.05 40.25 -30.2 63.0 -30.2 85.8 -30.2 101.75 -14.05 117.8 1.9 117.8 24.7 117.8 47.55 101.75 63.6 85.8 79.7 63.0 79.7 40.25 79.7 24.15 63.6 8.1 47.55 8.1 24.7 M14.95 24.7 Q14.95 4.8 29.0 -9.25 43.05 -23.3 63.0 -23.3 83.0 -23.3 97.05 -9.25 111.15 4.8 111.15 24.7 111.15 44.7 97.05 58.75 83.0 72.8 63.0 72.8 43.05 72.8 29.0 58.75 14.95 44.7 14.95 24.7;M5.75 24.7 Q5.75 0.9 22.6 -15.95 39.4 -32.75 63.25 -32.75 87.1 -32.75 103.85 -15.95 120.65 0.9 120.65 24.7 120.65 48.6 103.85 65.45 87.1 82.25 63.25 82.25 39.4 82.25 22.6 65.45 5.75 48.6 5.75 24.7 M7.55 24.7 Q7.55 1.6 23.8 -14.7 40.15 -30.95 63.2 -30.95 86.5 -30.95 102.8 -14.7 119.1 1.6 119.1 24.7 119.1 47.9 102.8 64.2 86.5 80.45 63.2 80.45 40.15 80.45 23.8 64.2 7.55 47.9 7.55 24.7"/>
    </path>
  </g>
</svg>
