<?xml version="1.0" encoding="UTF-8" standalone="no"?>
<svg xmlns:xlink="http://www.w3.org/1999/xlink" height="356.0px" width="355.55px" xmlns="http://www.w3.org/2000/svg">
  <g transform="matrix(1.0, 0.0, 0.0, 1.0, 177.6, 178.0)">
    <path d="M-13.0 0.0 Q-13.0 5.4 -9.2 9.2 -5.4 13.0 0.0 13.0 5.4 13.0 9.2 9.2 13.0 5.4 13.0 0.0 13.0 -5.4 9.2 -9.2 5.4 -13.0 0.0 -13.0 -5.4 -13.0 -9.2 -9.2 -13.0 -5.4 -13.0 0.0 M-18.8 0.0 Q-18.8 7.8 -13.3 13.3 -7.8 18.8 0.0 18.8 7.8 18.8 13.25 13.3 18.75 7.8 18.75 0.0 18.75 -7.8 13.25 -13.3 7.8 -18.8 0.0 -18.8 -7.8 -18.8 -13.3 -13.3 -18.8 -7.8 -18.8 0.0" fill="#f5f2d5" fill-rule="evenodd" stroke="none">
      <animate attributeName="fill" dur="2s" repeatCount="indefinite" values="#f5f2d5;#f5f2d6"/>
      <animate attributeName="fill-opacity" dur="2s" repeatCount="indefinite" values="1.0;1.0"/>
      <animate attributeName="d" dur="2s" repeatCount="indefinite" values="M-13.0 0.0 Q-13.0 5.4 -9.2 9.2 -5.4 13.0 0.0 13.0 5.4 13.0 9.2 9.2 13.0 5.4 13.0 0.0 13.0 -5.4 9.2 -9.2 5.4 -13.0 0.0 -13.0 -5.4 -13.0 -9.2 -9.2 -13.0 -5.4 -13.0 0.0 M-18.8 0.0 Q-18.8 7.8 -13.3 13.3 -7.8 18.8 0.0 18.8 7.8 18.8 13.25 13.3 18.75 7.8 18.75 0.0 18.75 -7.8 13.25 -13.3 7.8 -18.8 0.0 -18.8 -7.8 -18.8 -13.3 -13.3 -18.8 -7.8 -18.8 0.0;M-121.6 0.0 Q-121.6 50.7 -85.95 86.35 -50.3 122.05 0.4 122.05 51.1 122.05 86.8 86.35 122.45 50.7 122.45 0.0 122.45 -50.7 86.8 -86.35 51.1 -122.0 0.4 -122.0 -50.3 -122.0 -85.95 -86.35 -121.6 -50.7 -121.6 0.0 M-177.6 0.0 Q-177.6 73.85 -125.5 125.95 -73.45 178.0 0.4 178.0 74.25 178.0 125.85 125.95 177.95 73.85 177.95 0.0 177.95 -73.85 125.85 -125.95 74.25 -178.0 0.4 -178.0 -73.45 -178.0 -125.5 -125.95 -177.6 -73.85 -177.6 0.0"/>
    </path>
    <path d="M-18.8 0.0 Q-18.8 -7.8 -13.3 -13.3 -7.8 -18.8 0.0 -18.8 7.8 -18.8 13.25 -13.3 18.75 -7.8 18.75 0.0 18.75 7.8 13.25 13.3 7.8 18.8 0.0 18.8 -7.8 18.8 -13.3 13.3 -18.8 7.8 -18.8 0.0 M-13.0 0.0 Q-13.0 -5.4 -9.2 -9.2 -5.4 -13.0 0.0 -13.0 5.4 -13.0 9.2 -9.2 13.0 -5.4 13.0 0.0 13.0 5.4 9.2 9.2 5.4 13.0 0.0 13.0 -5.4 13.0 -9.2 9.2 -13.0 5.4 -13.0 0.0" fill="none" stroke="#000000" stroke-linecap="round" stroke-linejoin="round" stroke-opacity="0.0" stroke-width="1.0">
      <animate attributeName="stroke" dur="2s" repeatCount="indefinite" values="#000000;#000001"/>
      <animate attributeName="stroke-width" dur="2s" repeatCount="indefinite" values="0.0;0.0"/>
      <animate attributeName="fill-opacity" dur="2s" repeatCount="indefinite" values="0.0;0.0"/>
      <animate attributeName="d" dur="2s" repeatCount="indefinite" values="M-18.8 0.0 Q-18.8 -7.8 -13.3 -13.3 -7.8 -18.8 0.0 -18.8 7.8 -18.8 13.25 -13.3 18.75 -7.8 18.75 0.0 18.75 7.8 13.25 13.3 7.8 18.8 0.0 18.8 -7.8 18.8 -13.3 13.3 -18.8 7.8 -18.8 0.0 M-13.0 0.0 Q-13.0 -5.4 -9.2 -9.2 -5.4 -13.0 0.0 -13.0 5.4 -13.0 9.2 -9.2 13.0 -5.4 13.0 0.0 13.0 5.4 9.2 9.2 5.4 13.0 0.0 13.0 -5.4 13.0 -9.2 9.2 -13.0 5.4 -13.0 0.0;M-177.6 0.0 Q-177.6 -73.85 -125.5 -125.95 -73.45 -178.0 0.4 -178.0 74.25 -178.0 125.85 -125.95 177.95 -73.85 177.95 0.0 177.95 73.85 125.85 125.95 74.25 178.0 0.4 178.0 -73.45 178.0 -125.5 125.95 -177.6 73.85 -177.6 0.0 M-121.6 0.0 Q-121.6 -50.7 -85.95 -86.35 -50.3 -122.0 0.4 -122.0 51.1 -122.0 86.8 -86.35 122.45 -50.7 122.45 0.0 122.45 50.7 86.8 86.35 51.1 122.05 0.4 122.05 -50.3 122.05 -85.95 86.35 -121.6 50.7 -121.6 0.0"/>
    </path>
  </g>
</svg>
