<?xml version="1.0" encoding="UTF-8" standalone="no"?>
<svg xmlns:xlink="http://www.w3.org/1999/xlink" height="513.2px" width="512.55px" xmlns="http://www.w3.org/2000/svg">
  <g transform="matrix(1.0, 0.0, 0.0, 1.0, 256.0, 256.6)">
    <path d="M-121.6 0.0 Q-121.6 50.7 -85.95 86.35 -50.3 122.05 0.4 122.05 51.1 122.05 86.8 86.35 122.45 50.7 122.45 0.0 122.45 -50.7 86.8 -86.35 51.1 -122.0 0.4 -122.0 -50.3 -122.0 -85.95 -86.35 -121.6 -50.7 -121.6 0.0 M-177.6 0.0 Q-177.6 73.85 -125.5 125.95 -73.45 178.0 0.4 178.0 74.25 178.0 125.85 125.95 177.95 73.85 177.95 0.0 177.95 -73.85 125.85 -125.95 74.25 -178.0 0.4 -178.0 -73.45 -178.0 -125.5 -125.95 -177.6 -73.85 -177.6 0.0" fill="#f5f2d5" fill-rule="evenodd" stroke="none">
      <animate attributeName="fill" dur="2s" repeatCount="indefinite" values="#f5f2d5;#f5f2d6"/>
      <animate attributeName="fill-opacity" dur="2s" repeatCount="indefinite" values="1.0;1.0"/>
      <animate attributeName="d" dur="2s" repeatCount="indefinite" values="M-121.6 0.0 Q-121.6 50.7 -85.95 86.35 -50.3 122.05 0.4 122.05 51.1 122.05 86.8 86.35 122.45 50.7 122.45 0.0 122.45 -50.7 86.8 -86.35 51.1 -122.0 0.4 -122.0 -50.3 -122.0 -85.95 -86.35 -121.6 -50.7 -121.6 0.0 M-177.6 0.0 Q-177.6 73.85 -125.5 125.95 -73.45 178.0 0.4 178.0 74.25 178.0 125.85 125.95 177.95 73.85 177.95 0.0 177.95 -73.85 125.85 -125.95 74.25 -178.0 0.4 -178.0 -73.45 -178.0 -125.5 -125.95 -177.6 -73.85 -177.6 0.0;M-175.25 0.0 Q-175.25 73.05 -123.85 124.45 -72.45 175.9 0.6 175.9 73.65 175.9 125.1 124.45 176.5 73.05 176.5 0.0 176.5 -73.05 125.1 -124.45 73.65 -175.85 0.6 -175.85 -72.45 -175.85 -123.85 -124.45 -175.25 -73.05 -175.25 0.0 M-256.0 0.0 Q-256.0 106.45 -180.9 181.55 -105.85 256.6 0.6 256.6 107.1 256.6 181.45 181.55 256.55 106.45 256.55 0.0 256.55 -106.45 181.45 -181.55 107.1 -256.6 0.6 -256.6 -105.85 -256.6 -180.9 -181.55 -256.0 -106.45 -256.0 0.0"/>
    </path>
    <path d="M-177.6 0.0 Q-177.6 -73.85 -125.5 -125.95 -73.45 -178.0 0.4 -178.0 74.25 -178.0 125.85 -125.95 177.95 -73.85 177.95 0.0 177.95 73.85 125.85 125.95 74.25 178.0 0.4 178.0 -73.45 178.0 -125.5 125.95 -177.6 73.85 -177.6 0.0 M-121.6 0.0 Q-121.6 -50.7 -85.95 -86.35 -50.3 -122.0 0.4 -122.0 51.1 -122.0 86.8 -86.35 122.45 -50.7 122.45 0.0 122.45 50.7 86.8 86.35 51.1 122.05 0.4 122.05 -50.3 122.05 -85.95 86.35 -121.6 50.7 -121.6 0.0" fill="none" stroke="#000000" stroke-linecap="round" stroke-linejoin="round" stroke-opacity="0.0" stroke-width="1.0">
      <animate attributeName="stroke" dur="2s" repeatCount="indefinite" values="#000000;#000001"/>
      <animate attributeName="stroke-width" dur="2s" repeatCount="indefinite" values="0.0;0.0"/>
      <animate attributeName="fill-opacity" dur="2s" repeatCount="indefinite" values="0.0;0.0"/>
      <animate attributeName="d" dur="2s" repeatCount="indefinite" values="M-177.6 0.0 Q-177.6 -73.85 -125.5 -125.95 -73.45 -178.0 0.4 -178.0 74.25 -178.0 125.85 -125.95 177.95 -73.85 177.95 0.0 177.95 73.85 125.85 125.95 74.25 178.0 0.4 178.0 -73.45 178.0 -125.5 125.95 -177.6 73.85 -177.6 0.0 M-121.6 0.0 Q-121.6 -50.7 -85.95 -86.35 -50.3 -122.0 0.4 -122.0 51.1 -122.0 86.8 -86.35 122.45 -50.7 122.45 0.0 122.45 50.7 86.8 86.35 51.1 122.05 0.4 122.05 -50.3 122.05 -85.95 86.35 -121.6 50.7 -121.6 0.0;M-256.0 0.0 Q-256.0 -106.45 -180.9 -181.55 -105.85 -256.6 0.6 -256.6 107.1 -256.6 181.45 -181.55 256.55 -106.45 256.55 0.0 256.55 106.45 181.45 181.55 107.1 256.6 0.6 256.6 -105.85 256.6 -180.9 181.55 -256.0 106.45 -256.0 0.0 M-175.25 0.0 Q-175.25 -73.05 -123.85 -124.45 -72.45 -175.85 0.6 -175.85 73.65 -175.85 125.1 -124.45 176.5 -73.05 176.5 0.0 176.5 73.05 125.1 124.45 73.65 175.9 0.6 175.9 -72.45 175.9 -123.85 124.45 -175.25 73.05 -175.25 0.0"/>
    </path>
  </g>
</svg>
