<?xml version="1.0" encoding="UTF-8" standalone="no"?>
<svg xmlns:xlink="http://www.w3.org/1999/xlink" height="1229.9px" width="1228.3px" xmlns="http://www.w3.org/2000/svg">
  <g transform="matrix(1.0, 0.0, 0.0, 1.0, 613.4, 614.95)">
    <path d="M-175.25 0.0 Q-175.25 73.05 -123.85 124.45 -72.45 175.9 0.6 175.9 73.65 175.9 125.1 124.45 176.5 73.05 176.5 0.0 176.5 -73.05 125.1 -124.45 73.65 -175.85 0.6 -175.85 -72.45 -175.85 -123.85 -124.45 -175.25 -73.05 -175.25 0.0 M-256.0 0.0 Q-256.0 106.45 -180.9 181.55 -105.85 256.6 0.6 256.6 107.1 256.6 181.45 181.55 256.55 106.45 256.55 0.0 256.55 -106.45 181.45 -181.55 107.1 -256.6 0.6 -256.6 -105.85 -256.6 -180.9 -181.55 -256.0 -106.45 -256.0 0.0" fill="#f5f2d5" fill-rule="evenodd" stroke="none">
      <animate attributeName="fill" dur="2s" repeatCount="indefinite" values="#f5f2d5;#f5f2d6"/>
      <animate attributeName="fill-opacity" dur="2s" repeatCount="indefinite" values="1.0;1.0"/>
      <animate attributeName="d" dur="2s" repeatCount="indefinite" values="M-175.25 0.0 Q-175.25 73.05 -123.85 124.45 -72.45 175.9 0.6 175.9 73.65 175.9 125.1 124.45 176.5 73.05 176.5 0.0 176.5 -73.05 125.1 -124.45 73.65 -175.85 0.6 -175.85 -72.45 -175.85 -123.85 -124.45 -175.25 -73.05 -175.25 0.0 M-256.0 0.0 Q-256.0 106.45 -180.9 181.55 -105.85 256.6 0.6 256.6 107.1 256.6 181.45 181.55 256.55 106.45 256.55 0.0 256.55 -106.45 181.45 -181.55 107.1 -256.6 0.6 -256.6 -105.85 -256.6 -180.9 -181.55 -256.0 -106.45 -256.0 0.0;M-562.65 0.0 Q-562.65 234.4 -397.7 399.3 -232.75 564.25 1.55 564.25 235.95 564.25 400.9 399.3 565.8 234.4 565.8 0.0 565.8 -234.4 400.9 -399.3 235.95 -564.2 1.55 -564.2 -232.75 -564.2 -397.7 -399.3 -562.65 -234.4 -562.65 0.0 M-613.4 0.0 Q-613.4 255.15 -433.5 435.05 -253.6 614.95 1.55 614.95 256.7 614.95 434.95 435.05 614.9 255.15 614.9 0.0 614.9 -255.15 434.95 -435.05 256.7 -614.95 1.55 -614.95 -253.6 -614.95 -433.5 -435.05 -613.4 -255.15 -613.4 0.0"/>
    </path>
    <path d="M-256.0 0.0 Q-256.0 -106.45 -180.9 -181.55 -105.85 -256.6 0.6 -256.6 107.1 -256.6 181.45 -181.55 256.55 -106.45 256.55 0.0 256.55 106.45 181.45 181.55 107.1 256.6 0.6 256.6 -105.85 256.6 -180.9 181.55 -256.0 106.45 -256.0 0.0 M-175.25 0.0 Q-175.25 -73.05 -123.85 -124.45 -72.45 -175.85 0.6 -175.85 73.65 -175.85 125.1 -124.45 176.5 -73.05 176.5 0.0 176.5 73.05 125.1 124.45 73.65 175.9 0.6 175.9 -72.45 175.9 -123.85 124.45 -175.25 73.05 -175.25 0.0" fill="none" stroke="#000000" stroke-linecap="round" stroke-linejoin="round" stroke-opacity="0.0" stroke-width="1.0">
      <animate attributeName="stroke" dur="2s" repeatCount="indefinite" values="#000000;#000001"/>
      <animate attributeName="stroke-width" dur="2s" repeatCount="indefinite" values="0.0;0.0"/>
      <animate attributeName="fill-opacity" dur="2s" repeatCount="indefinite" values="0.0;0.0"/>
      <animate attributeName="d" dur="2s" repeatCount="indefinite" values="M-256.0 0.0 Q-256.0 -106.45 -180.9 -181.55 -105.85 -256.6 0.6 -256.6 107.1 -256.6 181.45 -181.55 256.55 -106.45 256.55 0.0 256.55 106.45 181.45 181.55 107.1 256.6 0.6 256.6 -105.85 256.6 -180.9 181.55 -256.0 106.45 -256.0 0.0 M-175.25 0.0 Q-175.25 -73.05 -123.85 -124.45 -72.45 -175.85 0.6 -175.85 73.65 -175.85 125.1 -124.45 176.5 -73.05 176.5 0.0 176.5 73.05 125.1 124.45 73.65 175.9 0.6 175.9 -72.45 175.9 -123.85 124.45 -175.25 73.05 -175.25 0.0;M-613.4 0.0 Q-613.4 -255.15 -433.5 -435.05 -253.6 -614.95 1.55 -614.95 256.7 -614.95 434.95 -435.05 614.9 -255.15 614.9 0.0 614.9 255.15 434.95 435.05 256.7 614.95 1.55 614.95 -253.6 614.95 -433.5 435.05 -613.4 255.15 -613.4 0.0 M-562.65 0.0 Q-562.65 -234.4 -397.7 -399.3 -232.75 -564.2 1.55 -564.2 235.95 -564.2 400.9 -399.3 565.8 -234.4 565.8 0.0 565.8 234.4 400.9 399.3 235.95 564.25 1.55 564.25 -232.75 564.25 -397.7 399.3 -562.65 234.4 -562.65 0.0"/>
    </path>
  </g>
</svg>
