<?xml version="1.0" encoding="UTF-8" standalone="no"?>
<svg xmlns:xlink="http://www.w3.org/1999/xlink" height="1229.9px" width="1228.3px" xmlns="http://www.w3.org/2000/svg">
  <g transform="matrix(1.0, 0.0, 0.0, 1.0, 613.4, 614.95)">
    <path d="M-166.95 0.0 Q-166.95 69.55 -117.95 118.6 -68.95 167.55 0.6 167.55 70.2 167.55 119.15 118.6 168.1 69.55 168.1 0.0 168.1 -69.55 119.15 -118.6 70.2 -167.5 0.6 -167.5 -68.95 -167.5 -117.95 -118.6 -166.95 -69.55 -166.95 0.0 M-240.85 0.0 Q-240.85 100.2 -170.25 170.8 -99.6 241.45 0.6 241.45 100.75 241.45 170.75 170.8 241.4 100.2 241.4 0.0 241.4 -100.2 170.75 -170.8 100.75 -241.45 0.6 -241.45 -99.6 -241.45 -170.25 -170.8 -240.85 -100.2 -240.85 0.0" fill="#545454" fill-rule="evenodd" stroke="none">
      <animate attributeName="fill" dur="2s" repeatCount="indefinite" values="#545454;#545455"/>
      <animate attributeName="fill-opacity" dur="2s" repeatCount="indefinite" values="1.0;1.0"/>
      <animate attributeName="d" dur="2s" repeatCount="indefinite" values="M-166.95 0.0 Q-166.95 69.55 -117.95 118.6 -68.95 167.55 0.6 167.55 70.2 167.55 119.15 118.6 168.1 69.55 168.1 0.0 168.1 -69.55 119.15 -118.6 70.2 -167.5 0.6 -167.5 -68.95 -167.5 -117.95 -118.6 -166.95 -69.55 -166.95 0.0 M-240.85 0.0 Q-240.85 100.2 -170.25 170.8 -99.6 241.45 0.6 241.45 100.75 241.45 170.75 170.8 241.4 100.2 241.4 0.0 241.4 -100.2 170.75 -170.8 100.75 -241.45 0.6 -241.45 -99.6 -241.45 -170.25 -170.8 -240.85 -100.2 -240.85 0.0;M-505.65 0.0 Q-505.65 210.7 -357.4 359.0 -209.1 507.25 1.55 507.25 212.25 507.25 360.55 359.0 508.8 210.7 508.8 0.0 508.8 -210.7 360.55 -359.0 212.25 -507.2 1.55 -507.2 -209.1 -507.2 -357.4 -359.0 -505.65 -210.7 -505.65 0.0 M-613.4 0.0 Q-613.4 255.15 -433.5 435.05 -253.6 614.95 1.55 614.95 256.7 614.95 434.95 435.05 614.9 255.15 614.9 0.0 614.9 -255.15 434.95 -435.05 256.7 -614.95 1.55 -614.95 -253.6 -614.95 -433.5 -435.05 -613.4 -255.15 -613.4 0.0"/>
    </path>
    <path d="M-240.85 0.0 Q-240.85 -100.2 -170.25 -170.8 -99.6 -241.45 0.6 -241.45 100.75 -241.45 170.75 -170.8 241.4 -100.2 241.4 0.0 241.4 100.2 170.75 170.8 100.75 241.45 0.6 241.45 -99.6 241.45 -170.25 170.8 -240.85 100.2 -240.85 0.0 M-166.95 0.0 Q-166.95 -69.55 -117.95 -118.6 -68.95 -167.5 0.6 -167.5 70.2 -167.5 119.15 -118.6 168.1 -69.55 168.1 0.0 168.1 69.55 119.15 118.6 70.2 167.55 0.6 167.55 -68.95 167.55 -117.95 118.6 -166.95 69.55 -166.95 0.0" fill="none" stroke="#000000" stroke-linecap="round" stroke-linejoin="round" stroke-opacity="0.0" stroke-width="1.0">
      <animate attributeName="stroke" dur="2s" repeatCount="indefinite" values="#000000;#000001"/>
      <animate attributeName="stroke-width" dur="2s" repeatCount="indefinite" values="0.0;0.0"/>
      <animate attributeName="fill-opacity" dur="2s" repeatCount="indefinite" values="0.0;0.0"/>
      <animate attributeName="d" dur="2s" repeatCount="indefinite" values="M-240.85 0.0 Q-240.85 -100.2 -170.25 -170.8 -99.6 -241.45 0.6 -241.45 100.75 -241.45 170.75 -170.8 241.4 -100.2 241.4 0.0 241.4 100.2 170.75 170.8 100.75 241.45 0.6 241.45 -99.6 241.45 -170.25 170.8 -240.85 100.2 -240.85 0.0 M-166.95 0.0 Q-166.95 -69.55 -117.95 -118.6 -68.95 -167.5 0.6 -167.5 70.2 -167.5 119.15 -118.6 168.1 -69.55 168.1 0.0 168.1 69.55 119.15 118.6 70.2 167.55 0.6 167.55 -68.95 167.55 -117.95 118.6 -166.95 69.55 -166.95 0.0;M-613.4 0.0 Q-613.4 -255.15 -433.5 -435.05 -253.6 -614.95 1.55 -614.95 256.7 -614.95 434.95 -435.05 614.9 -255.15 614.9 0.0 614.9 255.15 434.95 435.05 256.7 614.95 1.55 614.95 -253.6 614.95 -433.5 435.05 -613.4 255.15 -613.4 0.0 M-505.65 0.0 Q-505.65 -210.7 -357.4 -359.0 -209.1 -507.2 1.55 -507.2 212.25 -507.2 360.55 -359.0 508.8 -210.7 508.8 0.0 508.8 210.7 360.55 359.0 212.25 507.25 1.55 507.25 -209.1 507.25 -357.4 359.0 -505.65 210.7 -505.65 0.0"/>
    </path>
  </g>
</svg>
