<?xml version="1.0" encoding="UTF-8" standalone="no"?>
<svg xmlns:xlink="http://www.w3.org/1999/xlink" height="202.9px" width="199.45px" xmlns="http://www.w3.org/2000/svg">
  <g transform="matrix(1.0, 0.0, 0.0, 1.0, 143.75, 78.15)">
    <path d="M-43.2 -70.3 Q-82.95 -70.3 -111.15 -42.25 -139.2 -14.2 -139.2 25.7 -139.2 65.6 -111.15 93.65 -82.95 121.7 -43.2 121.7 -3.2 121.7 24.9 93.65 53.0 65.6 53.0 25.7 53.0 -14.2 24.9 -42.25 -3.2 -70.3 -43.2 -70.3 M-43.15 -73.35 Q-2.1 -73.35 26.7 -44.35 55.7 -15.4 55.7 25.7 55.7 66.8 26.7 95.75 -2.1 124.75 -43.15 124.75 -84.25 124.75 -113.2 95.75 -142.15 66.8 -142.15 25.7 -142.15 -15.4 -113.2 -44.35 -84.25 -73.35 -43.15 -73.35" fill="#000000" fill-opacity="0.2" fill-rule="evenodd" stroke="none"/>
    <path d="M-44.75 -78.15 Q-3.7 -78.15 25.1 -49.2 54.05 -20.2 54.05 20.9 54.05 61.95 25.1 90.95 -3.7 119.95 -44.75 119.95 -85.85 119.95 -114.8 90.95 -143.75 61.95 -143.75 20.9 -143.75 -20.2 -114.8 -49.2 -85.85 -78.15 -44.75 -78.15 M-44.8 -75.1 Q-84.55 -75.1 -112.75 -47.05 -140.8 -19.0 -140.8 20.9 -140.8 60.75 -112.75 88.8 -84.55 116.85 -44.8 116.85 -4.85 116.85 23.25 88.8 51.35 60.75 51.35 20.9 51.35 -19.0 23.25 -47.05 -4.85 -75.1 -44.8 -75.1" fill="#ffffff" fill-rule="evenodd" stroke="none"/>
  </g>
</svg>
