<?xml version="1.0" encoding="UTF-8" standalone="no"?>
<svg xmlns:xlink="http://www.w3.org/1999/xlink" height="115.05px" width="114.9px" xmlns="http://www.w3.org/2000/svg">
  <g transform="matrix(1.0, 0.0, 0.0, 1.0, 55.6, 54.9)">
    <path d="M42.5 -38.05 Q59.3 -21.25 59.3 2.6 59.3 26.5 42.5 43.3 25.75 60.15 1.9 60.15 -21.9 60.15 -38.75 43.3 -55.6 26.5 -55.6 2.6 -55.6 -21.25 -38.75 -38.05 -21.9 -54.9 1.9 -54.9 25.75 -54.9 42.5 -38.05 M41.45 -36.85 Q25.15 -53.1 1.85 -53.1 -21.2 -53.1 -37.55 -36.85 -53.8 -20.5 -53.8 2.6 -53.8 25.75 -37.55 42.05 -21.2 58.35 1.85 58.35 25.15 58.35 41.45 42.05 57.75 25.75 57.75 2.6 57.75 -20.5 41.45 -36.85" fill="#000000" fill-opacity="0.08627451" fill-rule="evenodd" stroke="none"/>
  </g>
</svg>
