<?xml version="1.0" encoding="UTF-8" standalone="no"?>
<svg xmlns:xlink="http://www.w3.org/1999/xlink" height="218.95px" width="217.05px" xmlns="http://www.w3.org/2000/svg">
  <g transform="matrix(1.0, 0.0, 0.0, 1.0, 86.6, 124.65)">
    <path d="M127.55 -13.55 Q127.55 -57.05 96.9 -87.5 66.35 -118.1 22.75 -118.1 -20.5 -118.1 -51.2 -87.5 -81.8 -57.05 -81.8 -13.55 -81.8 29.9 -51.2 60.4 -20.5 91.0 22.75 91.0 66.35 91.0 96.9 60.4 127.55 29.9 127.55 -13.55 M130.45 -13.55 Q130.45 31.2 98.95 62.75 67.55 94.3 22.85 94.3 -21.9 94.3 -53.4 62.75 -84.95 31.2 -84.95 -13.55 -84.95 -58.35 -53.4 -89.85 -21.9 -121.45 22.85 -121.45 67.55 -121.45 98.95 -89.85 130.45 -58.35 130.45 -13.55" fill="#333333" fill-opacity="0.08627451" fill-rule="evenodd" stroke="none"/>
    <path d="M128.85 -16.8 Q128.85 28.0 97.35 59.5 65.95 91.1 21.25 91.1 -23.55 91.1 -55.0 59.5 -86.6 28.0 -86.6 -16.8 -86.6 -61.55 -55.0 -93.1 -23.55 -124.65 21.25 -124.65 65.95 -124.65 97.35 -93.1 128.85 -61.55 128.85 -16.8 M125.95 -16.8 Q125.95 -60.25 95.3 -90.75 64.7 -121.35 21.15 -121.35 -22.15 -121.35 -52.8 -90.75 -83.4 -60.25 -83.4 -16.8 -83.4 26.7 -52.8 57.2 -22.15 87.8 21.15 87.8 64.7 87.8 95.3 57.2 125.95 26.7 125.95 -16.8" fill="#333333" fill-rule="evenodd" stroke="none"/>
  </g>
</svg>
