<?xml version="1.0" encoding="UTF-8" standalone="no"?>
<svg xmlns:xlink="http://www.w3.org/1999/xlink" height="115.0px" width="114.9px" xmlns="http://www.w3.org/2000/svg">
  <g transform="matrix(1.0, 0.0, 0.0, 1.0, -5.75, 32.75)">
    <path d="M63.2 -30.95 Q40.15 -30.95 23.8 -14.7 7.55 1.6 7.55 24.7 7.55 47.9 23.8 64.2 40.15 80.45 63.2 80.45 86.5 80.45 102.8 64.2 119.1 47.9 119.1 24.7 119.1 1.6 102.8 -14.7 86.5 -30.95 63.2 -30.95 M63.25 -32.75 Q87.1 -32.75 103.85 -15.95 120.65 0.9 120.65 24.7 120.65 48.6 103.85 65.45 87.1 82.25 63.25 82.25 39.4 82.25 22.6 65.45 5.75 48.6 5.75 24.7 5.75 0.9 22.6 -15.95 39.4 -32.75 63.25 -32.75" fill="#738598" fill-rule="evenodd" stroke="none"/>
  </g>
</svg>
