<?xml version="1.0" encoding="UTF-8" standalone="no"?>
<svg xmlns:xlink="http://www.w3.org/1999/xlink" height="224.5px" width="144.45px" xmlns="http://www.w3.org/2000/svg">
  <g transform="matrix(1.0, 0.0, 0.0, 1.0, 72.2, 112.25)">
    <path d="M69.65 -25.85 Q54.3 -29.3 42.25 -30.9 -11.35 -37.9 -68.0 -25.0 -11.35 -37.9 42.25 -30.9 54.3 -29.3 69.65 -25.85 L71.75 -20.05 68.9 111.75 -68.0 108.15 -71.7 -17.4 -68.0 -25.0 Q-70.15 -57.55 -67.4 -99.5 -9.5 -124.1 66.4 -99.3 71.2 -59.1 69.65 -25.85" fill="url(#gradient0)" fill-rule="evenodd" stroke="none"/>
    <path d="M-68.0 -25.0 Q-11.35 -37.9 42.25 -30.9 54.3 -29.3 69.65 -25.85 71.2 -59.1 66.4 -99.3 -9.5 -124.1 -67.4 -99.5 -70.15 -57.55 -68.0 -25.0 L-71.7 -17.4 -68.0 108.15 68.9 111.75 71.75 -20.05 69.65 -25.85" fill="none" stroke="#000000" stroke-linecap="round" stroke-linejoin="round" stroke-opacity="0.29803923" stroke-width="1.0"/>
  </g>
  <defs>
    <linearGradient color-interpolation="linearRGB" gradientTransform="matrix(-0.0819, -0.0025, 0.0028, -0.0907, -0.95, 40.95)" gradientUnits="userSpaceOnUse" id="gradient0" spreadMethod="reflect" x1="-819.2" x2="819.2">
      <stop offset="0.0" stop-color="#dbdbdb"/>
      <stop offset="0.20392156862745098" stop-color="#ffffff"/>
      <stop offset="0.792156862745098" stop-color="#ffffff"/>
      <stop offset="1.0" stop-color="#dedede"/>
    </linearGradient>
  </defs>
</svg>
