<?xml version="1.0" encoding="UTF-8" standalone="no"?>
<svg xmlns:xlink="http://www.w3.org/1999/xlink" height="1229.9px" width="1228.3px" xmlns="http://www.w3.org/2000/svg">
  <g transform="matrix(1.0, 0.0, 0.0, 1.0, 613.4, 614.95)">
    <path d="M400.9 -399.3 Q235.95 -564.2 1.55 -564.2 -232.75 -564.2 -397.7 -399.3 -562.65 -234.4 -562.65 0.0 -562.65 234.4 -397.7 399.3 -232.75 564.25 1.55 564.25 235.95 564.25 400.9 399.3 565.8 234.4 565.8 0.0 565.8 -234.4 400.9 -399.3 M434.95 -435.05 Q614.9 -255.15 614.9 0.0 614.9 255.15 434.95 435.05 256.7 614.95 1.55 614.95 -253.6 614.95 -433.5 435.05 -613.4 255.15 -613.4 0.0 -613.4 -255.15 -433.5 -435.05 -253.6 -614.95 1.55 -614.95 256.7 -614.95 434.95 -435.05" fill="#f5f2d5" fill-rule="evenodd" stroke="none"/>
  </g>
</svg>
